<?xml version="1.0" encoding="UTF-8"?>
<!DOCTYPE svg PUBLIC "-//W3C//DTD SVG 1.1//EN" "http://www.w3.org/Graphics/SVG/1.1/DTD/svg11.dtd">
<svg xmlns="http://www.w3.org/2000/svg" version="1.1" width="500px" height="500px" style="shape-rendering:geometricPrecision; text-rendering:geometricPrecision; image-rendering:optimizeQuality; fill-rule:evenodd; clip-rule:evenodd" xmlns:xlink="http://www.w3.org/1999/xlink">
<g><path style="opacity:0.653" fill="#c2e3d1" d="M 264.5,68.5 C 251.833,68.5 239.167,68.5 226.5,68.5C 232.665,67.661 238.998,66.9944 245.5,66.5C 252.002,66.9944 258.335,67.661 264.5,68.5 Z"/></g>
<g><path style="opacity:0.825" fill="#bce1cd" d="M 266.5,68.5 C 279.333,69.398 291.666,72.0647 303.5,76.5C 292.048,73.6804 280.381,71.5137 268.5,70C 267.584,69.7216 266.918,69.2216 266.5,68.5 Z"/></g>
<g><path style="opacity:1" fill="#a6debe" d="M 226.5,68.5 C 239.167,68.5 251.833,68.5 264.5,68.5C 265.167,68.5 265.833,68.5 266.5,68.5C 266.918,69.2216 267.584,69.7216 268.5,70C 280.381,71.5137 292.048,73.6804 303.5,76.5C 309.462,77.7093 315.129,79.7093 320.5,82.5C 320.75,83.9221 321.583,84.9221 323,85.5C 323.49,86.7932 323.657,88.1266 323.5,89.5C 319.833,89.5 316.167,89.5 312.5,89.5C 312.5,90.5 312.5,91.5 312.5,92.5C 311.167,92.5 309.833,92.5 308.5,92.5C 308.5,95.5 308.5,98.5 308.5,101.5C 305.833,101.5 303.167,101.5 300.5,101.5C 300.5,102.833 300.5,104.167 300.5,105.5C 296.5,106.833 292.5,108.167 288.5,109.5C 288.5,108.167 288.5,106.833 288.5,105.5C 284.585,105.247 280.919,105.913 277.5,107.5C 277.5,109.5 277.5,111.5 277.5,113.5C 276.167,113.5 274.833,113.5 273.5,113.5C 273.5,115.833 273.5,118.167 273.5,120.5C 272.167,120.5 270.833,120.5 269.5,120.5C 269.5,121.833 269.5,123.167 269.5,124.5C 268.167,124.5 266.833,124.5 265.5,124.5C 265.5,127.167 265.5,129.833 265.5,132.5C 266.833,132.5 268.167,132.5 269.5,132.5C 269.5,133.833 269.5,135.167 269.5,136.5C 267.901,136.232 266.568,136.566 265.5,137.5C 255.188,136.956 244.855,137.456 234.5,139C 235.793,139.49 237.127,139.657 238.5,139.5C 238.5,141.167 238.5,142.833 238.5,144.5C 230.178,146.571 222.178,149.238 214.5,152.5C 214.5,153.5 214.5,154.5 214.5,155.5C 211.833,155.833 209.167,156.167 206.5,156.5C 206.5,157.5 206.5,158.5 206.5,159.5C 205.325,159.281 204.325,159.614 203.5,160.5C 204.124,163.324 203.457,165.991 201.5,168.5C 198.506,165.059 196.673,161.059 196,156.5C 195.586,156.957 195.086,157.291 194.5,157.5C 193.735,156.388 192.735,155.721 191.5,155.5C 191.262,152.852 189.928,151.018 187.5,150C 172.328,149.172 157.328,149.339 142.5,150.5C 141.508,150.328 140.842,150.662 140.5,151.5C 139.883,151.611 139.383,151.944 139,152.5C 138.505,154.473 138.338,156.473 138.5,158.5C 135.975,155.034 136.308,151.534 139.5,148C 138.552,147.517 137.552,147.351 136.5,147.5C 135.625,154.119 134.459,154.119 133,147.5C 132.503,150.146 132.336,152.813 132.5,155.5C 121.833,155.5 111.167,155.5 100.5,155.5C 101.481,150.871 101.648,146.204 101,141.5C 100.333,145.5 99.6667,145.5 99,141.5C 98.2917,142.381 97.4584,143.047 96.5,143.5C 123.062,107.025 158.395,83.1914 202.5,72C 210.389,69.9881 218.389,68.8215 226.5,68.5 Z"/></g>
<g><path style="opacity:1" fill="#a4d9bd" d="M 320.5,82.5 C 328.117,85.6417 335.45,89.3084 342.5,93.5C 343.254,96.091 344.921,97.9243 347.5,99C 344.833,99.6667 344.833,100.333 347.5,101C 344.854,101.497 342.187,101.664 339.5,101.5C 339.5,102.833 339.5,104.167 339.5,105.5C 338.167,105.5 336.833,105.5 335.5,105.5C 335.655,110.641 334.988,115.641 333.5,120.5C 331.5,120.5 329.5,120.5 327.5,120.5C 327.5,121.833 327.5,123.167 327.5,124.5C 325.334,124.579 323.334,125.246 321.5,126.5C 319.944,125.453 318.277,124.786 316.5,124.5C 316.5,125.833 316.5,127.167 316.5,128.5C 314.833,128.5 313.167,128.5 311.5,128.5C 311.5,129.833 311.5,131.167 311.5,132.5C 307.833,132.5 304.167,132.5 300.5,132.5C 300.5,133.833 300.5,135.167 300.5,136.5C 296.466,136.505 292.466,136.838 288.5,137.5C 288.5,135.833 288.5,134.167 288.5,132.5C 287.167,132.5 285.833,132.5 284.5,132.5C 284.5,134.167 284.5,135.833 284.5,137.5C 278.167,137.5 271.833,137.5 265.5,137.5C 266.568,136.566 267.901,136.232 269.5,136.5C 269.5,135.167 269.5,133.833 269.5,132.5C 268.167,132.5 266.833,132.5 265.5,132.5C 265.5,129.833 265.5,127.167 265.5,124.5C 266.833,124.5 268.167,124.5 269.5,124.5C 269.5,123.167 269.5,121.833 269.5,120.5C 270.833,120.5 272.167,120.5 273.5,120.5C 273.5,118.167 273.5,115.833 273.5,113.5C 274.833,113.5 276.167,113.5 277.5,113.5C 277.5,111.5 277.5,109.5 277.5,107.5C 280.919,105.913 284.585,105.247 288.5,105.5C 288.5,106.833 288.5,108.167 288.5,109.5C 292.5,108.167 296.5,106.833 300.5,105.5C 300.5,104.167 300.5,102.833 300.5,101.5C 303.167,101.5 305.833,101.5 308.5,101.5C 308.5,98.5 308.5,95.5 308.5,92.5C 309.833,92.5 311.167,92.5 312.5,92.5C 312.5,91.5 312.5,90.5 312.5,89.5C 316.167,89.5 319.833,89.5 323.5,89.5C 323.657,88.1266 323.49,86.7932 323,85.5C 321.583,84.9221 320.75,83.9221 320.5,82.5 Z"/></g>
<g><path style="opacity:1" fill="#a0d6bd" d="M 342.5,93.5 C 350.58,97.8668 357.913,103.2 364.5,109.5C 364.561,111.592 365.561,113.092 367.5,114C 362.595,113.652 359.929,115.818 359.5,120.5C 358.167,120.5 356.833,120.5 355.5,120.5C 355.5,121.833 355.5,123.167 355.5,124.5C 354.167,124.5 352.833,124.5 351.5,124.5C 351.5,125.833 351.5,127.167 351.5,128.5C 350.167,128.5 348.833,128.5 347.5,128.5C 347.5,129.833 347.5,131.167 347.5,132.5C 350.167,132.5 352.833,132.5 355.5,132.5C 355.5,133.5 355.5,134.5 355.5,135.5C 356.675,135.281 357.675,135.614 358.5,136.5C 357.833,136.833 357.167,137.167 356.5,137.5C 354.865,136.954 353.199,136.62 351.5,136.5C 352.188,141.387 351.021,145.721 348,149.5C 346.644,148.62 345.144,148.286 343.5,148.5C 319.965,138.972 300.132,143.972 284,163.5C 280.314,170.055 278.148,177.055 277.5,184.5C 276.596,185.209 276.263,186.209 276.5,187.5C 254.833,187.5 233.167,187.5 211.5,187.5C 211.5,186.833 211.167,186.5 210.5,186.5C 203.927,176.362 197.594,166.028 191.5,155.5C 192.735,155.721 193.735,156.388 194.5,157.5C 195.086,157.291 195.586,156.957 196,156.5C 196.673,161.059 198.506,165.059 201.5,168.5C 203.457,165.991 204.124,163.324 203.5,160.5C 204.325,159.614 205.325,159.281 206.5,159.5C 206.5,158.5 206.5,157.5 206.5,156.5C 209.167,156.167 211.833,155.833 214.5,155.5C 214.5,154.5 214.5,153.5 214.5,152.5C 222.178,149.238 230.178,146.571 238.5,144.5C 238.5,142.833 238.5,141.167 238.5,139.5C 237.127,139.657 235.793,139.49 234.5,139C 244.855,137.456 255.188,136.956 265.5,137.5C 271.833,137.5 278.167,137.5 284.5,137.5C 284.5,135.833 284.5,134.167 284.5,132.5C 285.833,132.5 287.167,132.5 288.5,132.5C 288.5,134.167 288.5,135.833 288.5,137.5C 292.466,136.838 296.466,136.505 300.5,136.5C 300.5,135.167 300.5,133.833 300.5,132.5C 304.167,132.5 307.833,132.5 311.5,132.5C 311.5,131.167 311.5,129.833 311.5,128.5C 313.167,128.5 314.833,128.5 316.5,128.5C 316.5,127.167 316.5,125.833 316.5,124.5C 318.277,124.786 319.944,125.453 321.5,126.5C 323.334,125.246 325.334,124.579 327.5,124.5C 327.5,123.167 327.5,121.833 327.5,120.5C 329.5,120.5 331.5,120.5 333.5,120.5C 334.988,115.641 335.655,110.641 335.5,105.5C 336.833,105.5 338.167,105.5 339.5,105.5C 339.5,104.167 339.5,102.833 339.5,101.5C 342.187,101.664 344.854,101.497 347.5,101C 344.833,100.333 344.833,99.6667 347.5,99C 344.921,97.9243 343.254,96.091 342.5,93.5 Z"/></g>
<g><path style="opacity:1" fill="#9ed2bb" d="M 364.5,109.5 C 374.5,117.5 383.5,126.5 391.5,136.5C 390.417,136.461 389.417,136.127 388.5,135.5C 386.845,133.014 385.012,130.68 383,128.5C 382.5,134.825 382.334,141.158 382.5,147.5C 376.222,146.033 373.555,148.699 374.5,155.5C 369.921,154.697 366.754,156.363 365,160.5C 364.293,158.919 363.46,157.419 362.5,156C 359.518,155.502 356.518,155.335 353.5,155.5C 350.129,153.154 346.796,150.821 343.5,148.5C 345.144,148.286 346.644,148.62 348,149.5C 351.021,145.721 352.188,141.387 351.5,136.5C 353.199,136.62 354.865,136.954 356.5,137.5C 357.167,137.167 357.833,136.833 358.5,136.5C 357.675,135.614 356.675,135.281 355.5,135.5C 355.5,134.5 355.5,133.5 355.5,132.5C 352.833,132.5 350.167,132.5 347.5,132.5C 347.5,131.167 347.5,129.833 347.5,128.5C 348.833,128.5 350.167,128.5 351.5,128.5C 351.5,127.167 351.5,125.833 351.5,124.5C 352.833,124.5 354.167,124.5 355.5,124.5C 355.5,123.167 355.5,121.833 355.5,120.5C 356.833,120.5 358.167,120.5 359.5,120.5C 359.929,115.818 362.595,113.652 367.5,114C 365.561,113.092 364.561,111.592 364.5,109.5 Z"/></g>
<g><path style="opacity:0.999" fill="#99cbba" d="M 391.5,136.5 C 397.962,142.969 403.295,150.303 407.5,158.5C 407.617,160.484 406.95,162.15 405.5,163.5C 406.428,164.768 406.595,166.101 406,167.5C 403.333,170.167 400.667,172.833 398,175.5C 397.51,176.793 397.343,178.127 397.5,179.5C 395.139,179.674 392.806,180.007 390.5,180.5C 390.657,181.873 390.49,183.207 390,184.5C 388.103,182.984 385.936,182.317 383.5,182.5C 375.204,175.21 366.871,167.876 358.5,160.5C 356.5,159.167 354.833,157.5 353.5,155.5C 356.518,155.335 359.518,155.502 362.5,156C 363.46,157.419 364.293,158.919 365,160.5C 366.754,156.363 369.921,154.697 374.5,155.5C 373.555,148.699 376.222,146.033 382.5,147.5C 382.334,141.158 382.5,134.825 383,128.5C 385.012,130.68 386.845,133.014 388.5,135.5C 389.417,136.127 390.417,136.461 391.5,136.5 Z"/></g>
<g><path style="opacity:1" fill="#fbfcfb" d="M 343.5,148.5 C 346.796,150.821 350.129,153.154 353.5,155.5C 354.833,157.5 356.5,159.167 358.5,160.5C 362.575,166.203 365.408,172.536 367,179.5C 367.667,191.5 367.667,203.5 367,215.5C 366.094,218.31 364.927,220.976 363.5,223.5C 360.712,225.976 357.378,226.976 353.5,226.5C 344.754,218.946 335.754,211.613 326.5,204.5C 317.121,216.548 308.121,228.881 299.5,241.5C 289.809,253.705 280.643,266.372 272,279.5C 266.747,285.702 260.247,289.702 252.5,291.5C 252.5,318.5 252.5,345.5 252.5,372.5C 261.833,372.5 271.167,372.5 280.5,372.5C 283.652,372.571 285.986,373.905 287.5,376.5C 288.139,380.897 286.473,383.897 282.5,385.5C 266.167,385.5 249.833,385.5 233.5,385.5C 225.833,385.5 218.167,385.5 210.5,385.5C 208.053,385.385 206.053,384.385 204.5,382.5C 204.5,381.833 204.5,381.167 204.5,380.5C 203.959,377.348 204.959,374.848 207.5,373C 218.161,372.5 228.828,372.333 239.5,372.5C 239.5,345.167 239.5,317.833 239.5,290.5C 238.167,290.5 236.833,290.5 235.5,290.5C 227.019,287.023 220.352,281.356 215.5,273.5C 210.471,264.776 204.471,256.776 197.5,249.5C 194.144,242.785 189.81,236.785 184.5,231.5C 180.55,224.887 176.217,218.554 171.5,212.5C 168.193,207.518 164.859,202.518 161.5,197.5C 160.875,194.03 161.875,191.196 164.5,189C 175.828,188.5 187.162,188.333 198.5,188.5C 202.833,188.5 207.167,188.5 211.5,188.5C 233.5,188.5 255.5,188.5 277.5,188.5C 277.5,187.167 277.5,185.833 277.5,184.5C 278.148,177.055 280.314,170.055 284,163.5C 300.132,143.972 319.965,138.972 343.5,148.5 Z"/></g>
<g><path style="opacity:1" fill="#91b7b2" d="M 142.5,150.5 C 157.328,149.339 172.328,149.172 187.5,150C 189.928,151.018 191.262,152.852 191.5,155.5C 190.164,153.693 188.497,152.193 186.5,151C 171.837,150.5 157.17,150.333 142.5,150.5 Z"/></g>
<g><path style="opacity:1" fill="#4a4a62" d="M 142.5,150.5 C 157.17,150.333 171.837,150.5 186.5,151C 188.497,152.193 190.164,153.693 191.5,155.5C 197.594,166.028 203.927,176.362 210.5,186.5C 206.702,187.483 202.702,187.817 198.5,187.5C 192.833,178.833 187.167,170.167 181.5,161.5C 181.389,160.883 181.056,160.383 180.5,160C 167.833,159.667 155.167,159.333 142.5,159C 139.489,157.132 138.822,154.632 140.5,151.5C 140.842,150.662 141.508,150.328 142.5,150.5 Z"/></g>
<g><path style="opacity:1" fill="#9eddbf" d="M 138.5,158.5 C 138.539,159.583 138.873,160.583 139.5,161.5C 148.816,162.332 158.149,162.832 167.5,163C 160.122,163.895 152.789,164.229 145.5,164C 146.328,164.915 147.328,165.581 148.5,166C 152.17,166.548 155.837,167.048 159.5,167.5C 159.5,168.833 159.5,170.167 159.5,171.5C 160.833,171.5 162.167,171.5 163.5,171.5C 163.5,172.833 163.5,174.167 163.5,175.5C 162.167,175.5 160.833,175.5 159.5,175.5C 159.5,176.5 159.5,177.5 159.5,178.5C 160.833,178.5 162.167,178.5 163.5,178.5C 163.223,181.448 163.556,184.281 164.5,187C 162.817,188.286 161.151,189.453 159.5,190.5C 158.878,191.627 158.045,192.627 157,193.5C 156.667,191.167 156.333,188.833 156,186.5C 155.517,187.448 155.351,188.448 155.5,189.5C 153.076,189.808 150.743,189.474 148.5,188.5C 148.113,187.28 147.28,186.613 146,186.5C 141.554,187.412 137.054,187.745 132.5,187.5C 132.5,189.833 132.5,192.167 132.5,194.5C 129.833,194.833 127.167,195.167 124.5,195.5C 124.5,194.167 124.5,192.833 124.5,191.5C 122.453,191.489 120.453,191.156 118.5,190.5C 112.796,191.013 107.462,192.346 102.5,194.5C 96.8484,195.135 91.1818,195.468 85.5,195.5C 85.5,194.167 85.5,192.833 85.5,191.5C 82.6567,191.083 79.99,190.083 77.5,188.5C 78.6888,187.571 80.0222,187.238 81.5,187.5C 81.1866,184.753 81.52,182.086 82.5,179.5C 83.4255,178.359 84.2588,178.359 85,179.5C 85.4988,175.514 85.6655,171.514 85.5,167.5C 86.8333,167.5 88.1667,167.5 89.5,167.5C 89.5,166.5 89.5,165.5 89.5,164.5C 90.8333,164.5 92.1667,164.5 93.5,164.5C 93.5,161.833 93.5,159.167 93.5,156.5C 95.861,156.326 98.1944,155.993 100.5,155.5C 111.167,155.5 121.833,155.5 132.5,155.5C 132.336,152.813 132.503,150.146 133,147.5C 134.459,154.119 135.625,154.119 136.5,147.5C 137.552,147.351 138.552,147.517 139.5,148C 136.308,151.534 135.975,155.034 138.5,158.5 Z"/></g>
<g><path style="opacity:1" fill="#505e69" d="M 140.5,151.5 C 138.822,154.632 139.489,157.132 142.5,159C 155.167,159.333 167.833,159.667 180.5,160C 181.056,160.383 181.389,160.883 181.5,161.5C 168.496,161.667 155.496,161.5 142.5,161C 141.016,160.338 139.683,159.504 138.5,158.5C 138.338,156.473 138.505,154.473 139,152.5C 139.383,151.944 139.883,151.611 140.5,151.5 Z"/></g>
<g><path style="opacity:1" fill="#fc874f" d="M 340.5,161.5 C 336.222,161.6 331.888,161.1 327.5,160C 328.833,160.667 330.167,161.333 331.5,162C 322.648,165.774 313.648,169.274 304.5,172.5C 303.923,174.55 302.59,175.55 300.5,175.5C 300.5,176.5 300.5,177.5 300.5,178.5C 299.167,178.5 297.833,178.5 296.5,178.5C 296.084,181.583 295.417,184.583 294.5,187.5C 293.167,187.5 291.833,187.5 290.5,187.5C 290.5,186.167 290.5,184.833 290.5,183.5C 292.511,170.317 299.844,161.483 312.5,157C 318.167,156.333 323.833,156.333 329.5,157C 333.474,157.994 337.14,159.494 340.5,161.5 Z"/></g>
<g><path style="opacity:1" fill="#fe804e" d="M 340.5,161.5 C 342.5,162.833 344.167,164.5 345.5,166.5C 345.649,167.552 345.483,168.552 345,169.5C 340.225,166.603 335.891,167.269 332,171.5C 331.51,172.793 331.343,174.127 331.5,175.5C 327.774,175.177 324.107,175.511 320.5,176.5C 318.417,179.246 315.75,181.246 312.5,182.5C 314.967,183.988 317.3,185.654 319.5,187.5C 311.167,187.5 302.833,187.5 294.5,187.5C 295.417,184.583 296.084,181.583 296.5,178.5C 297.833,178.5 299.167,178.5 300.5,178.5C 300.5,177.5 300.5,176.5 300.5,175.5C 302.59,175.55 303.923,174.55 304.5,172.5C 313.648,169.274 322.648,165.774 331.5,162C 330.167,161.333 328.833,160.667 327.5,160C 331.888,161.1 336.222,161.6 340.5,161.5 Z"/></g>
<g><path style="opacity:1" fill="#a1d8bf" d="M 138.5,158.5 C 139.683,159.504 141.016,160.338 142.5,161C 155.496,161.5 168.496,161.667 181.5,161.5C 187.167,170.167 192.833,178.833 198.5,187.5C 198.5,187.833 198.5,188.167 198.5,188.5C 187.162,188.333 175.828,188.5 164.5,189C 161.875,191.196 160.875,194.03 161.5,197.5C 160.833,195.167 160.167,192.833 159.5,190.5C 161.151,189.453 162.817,188.286 164.5,187C 163.556,184.281 163.223,181.448 163.5,178.5C 162.167,178.5 160.833,178.5 159.5,178.5C 159.5,177.5 159.5,176.5 159.5,175.5C 160.833,175.5 162.167,175.5 163.5,175.5C 163.5,174.167 163.5,172.833 163.5,171.5C 162.167,171.5 160.833,171.5 159.5,171.5C 159.5,170.167 159.5,168.833 159.5,167.5C 155.837,167.048 152.17,166.548 148.5,166C 147.328,165.581 146.328,164.915 145.5,164C 152.789,164.229 160.122,163.895 167.5,163C 158.149,162.832 148.816,162.332 139.5,161.5C 138.873,160.583 138.539,159.583 138.5,158.5 Z"/></g>
<g><path style="opacity:0.999" fill="#95c5b9" d="M 407.5,158.5 C 411.928,165.019 415.594,172.019 418.5,179.5C 418.318,181.591 418.652,183.591 419.5,185.5C 419.192,186.308 418.692,186.975 418,187.5C 417.83,185.285 417.163,183.285 416,181.5C 414.221,184.276 413.221,183.943 413,180.5C 411.727,182.714 410.727,185.047 410,187.5C 409.667,186.167 409.333,184.833 409,183.5C 407.215,187.571 405.049,191.405 402.5,195C 401.167,195.667 399.833,195.667 398.5,195C 396.449,192.98 394.116,191.48 391.5,190.5C 388.5,188.167 385.833,185.5 383.5,182.5C 385.936,182.317 388.103,182.984 390,184.5C 390.49,183.207 390.657,181.873 390.5,180.5C 392.806,180.007 395.139,179.674 397.5,179.5C 397.343,178.127 397.51,176.793 398,175.5C 400.667,172.833 403.333,170.167 406,167.5C 406.595,166.101 406.428,164.768 405.5,163.5C 406.95,162.15 407.617,160.484 407.5,158.5 Z"/></g>
<g><path style="opacity:1" fill="#fd7950" d="M 345.5,166.5 C 349.936,169.698 352.602,174.031 353.5,179.5C 353.301,181.96 352.635,184.293 351.5,186.5C 348.89,184.92 346.39,183.253 344,181.5C 341.281,182.444 338.448,182.777 335.5,182.5C 335.664,185.187 335.497,187.854 335,190.5C 334.174,188.595 333.007,188.261 331.5,189.5C 334.092,191.245 334.092,192.911 331.5,194.5C 328.5,192.5 325.5,190.5 322.5,188.5C 321.791,187.596 320.791,187.263 319.5,187.5C 317.3,185.654 314.967,183.988 312.5,182.5C 315.75,181.246 318.417,179.246 320.5,176.5C 324.107,175.511 327.774,175.177 331.5,175.5C 331.343,174.127 331.51,172.793 332,171.5C 335.891,167.269 340.225,166.603 345,169.5C 345.483,168.552 345.649,167.552 345.5,166.5 Z"/></g>
<g><path style="opacity:0.999" fill="#93bdb7" d="M 418.5,179.5 C 425.599,194.621 429.933,210.621 431.5,227.5C 427.129,225.967 423.795,223.134 421.5,219C 420.906,218.536 420.239,218.369 419.5,218.5C 410.597,208.651 401.263,199.318 391.5,190.5C 394.116,191.48 396.449,192.98 398.5,195C 399.833,195.667 401.167,195.667 402.5,195C 405.049,191.405 407.215,187.571 409,183.5C 409.333,184.833 409.667,186.167 410,187.5C 410.727,185.047 411.727,182.714 413,180.5C 413.221,183.943 414.221,184.276 416,181.5C 417.163,183.285 417.83,185.285 418,187.5C 418.692,186.975 419.192,186.308 419.5,185.5C 418.652,183.591 418.318,181.591 418.5,179.5 Z"/></g>
<g><path style="opacity:1" fill="#fc7353" d="M 353.5,179.5 C 354.404,180.209 354.737,181.209 354.5,182.5C 354.827,192.681 354.494,202.681 353.5,212.5C 352.833,212.5 352.5,212.167 352.5,211.5C 353.877,203.612 353.71,195.612 352,187.5C 351.667,189.833 351.333,192.167 351,194.5C 350.51,193.207 350.343,191.873 350.5,190.5C 348.409,190.318 346.409,190.652 344.5,191.5C 342.378,194.184 340.378,196.851 338.5,199.5C 335.865,198.189 333.531,196.522 331.5,194.5C 334.092,192.911 334.092,191.245 331.5,189.5C 333.007,188.261 334.174,188.595 335,190.5C 335.497,187.854 335.664,185.187 335.5,182.5C 338.448,182.777 341.281,182.444 344,181.5C 346.39,183.253 348.89,184.92 351.5,186.5C 352.635,184.293 353.301,181.96 353.5,179.5 Z"/></g>
<g><path style="opacity:0.741" fill="#afdecc" d="M 76.5,176.5 C 76.6602,178.199 76.4935,179.866 76,181.5C 73.3604,187.401 71.0271,193.401 69,199.5C 68.5837,203.914 67.7504,208.248 66.5,212.5C 66.2528,213.713 65.5862,214.38 64.5,214.5C 66.7206,201.176 70.7206,188.509 76.5,176.5 Z"/></g>
<g><path style="opacity:1" fill="#9adcc1" d="M 100.5,155.5 C 98.1944,155.993 95.861,156.326 93.5,156.5C 93.5,159.167 93.5,161.833 93.5,164.5C 92.1667,164.5 90.8333,164.5 89.5,164.5C 89.5,165.5 89.5,166.5 89.5,167.5C 88.1667,167.5 86.8333,167.5 85.5,167.5C 85.6655,171.514 85.4988,175.514 85,179.5C 84.2588,178.359 83.4255,178.359 82.5,179.5C 81.52,182.086 81.1866,184.753 81.5,187.5C 80.0222,187.238 78.6888,187.571 77.5,188.5C 79.99,190.083 82.6567,191.083 85.5,191.5C 85.5,192.833 85.5,194.167 85.5,195.5C 91.1818,195.468 96.8484,195.135 102.5,194.5C 107.462,192.346 112.796,191.013 118.5,190.5C 120.453,191.156 122.453,191.489 124.5,191.5C 124.5,192.833 124.5,194.167 124.5,195.5C 127.167,195.167 129.833,194.833 132.5,194.5C 132.5,192.167 132.5,189.833 132.5,187.5C 137.054,187.745 141.554,187.412 146,186.5C 147.28,186.613 148.113,187.28 148.5,188.5C 150.743,189.474 153.076,189.808 155.5,189.5C 155.351,188.448 155.517,187.448 156,186.5C 156.333,188.833 156.667,191.167 157,193.5C 158.045,192.627 158.878,191.627 159.5,190.5C 160.167,192.833 160.833,195.167 161.5,197.5C 164.859,202.518 168.193,207.518 171.5,212.5C 171.5,213.833 171.5,215.167 171.5,216.5C 168.692,216.693 166.025,217.36 163.5,218.5C 163.5,219.5 163.5,220.5 163.5,221.5C 164.833,221.5 166.167,221.5 167.5,221.5C 167.5,225.167 167.5,228.833 167.5,232.5C 158.294,230.733 148.961,230.067 139.5,230.5C 139.5,229.167 139.5,227.833 139.5,226.5C 138.5,226.5 137.5,226.5 136.5,226.5C 136.5,227.833 136.5,229.167 136.5,230.5C 129.833,230.5 123.167,230.5 116.5,230.5C 116.5,231.833 116.5,233.167 116.5,234.5C 108.893,234.136 101.226,234.136 93.5,234.5C 93.6641,231.813 93.4974,229.146 93,226.5C 90.6194,225.565 88.1194,225.232 85.5,225.5C 85.5,228.5 85.5,231.5 85.5,234.5C 80.4889,234.666 75.4889,234.499 70.5,234C 69.3078,232.055 69.3078,230.055 70.5,228C 70.1667,227.5 69.8333,227 69.5,226.5C 68.4164,227.665 67.5831,228.998 67,230.5C 64.8349,228.347 64.0016,225.681 64.5,222.5C 64.5,219.833 64.5,217.167 64.5,214.5C 65.5862,214.38 66.2528,213.713 66.5,212.5C 67.7504,208.248 68.5837,203.914 69,199.5C 71.0271,193.401 73.3604,187.401 76,181.5C 76.4935,179.866 76.6602,178.199 76.5,176.5C 81.4114,164.327 88.0781,153.327 96.5,143.5C 97.4584,143.047 98.2917,142.381 99,141.5C 99.6667,145.5 100.333,145.5 101,141.5C 101.648,146.204 101.481,150.871 100.5,155.5 Z"/></g>
<g><path style="opacity:1" fill="#727280" d="M 210.5,186.5 C 211.167,186.5 211.5,186.833 211.5,187.5C 211.5,187.833 211.5,188.167 211.5,188.5C 207.167,188.5 202.833,188.5 198.5,188.5C 198.5,188.167 198.5,187.833 198.5,187.5C 202.702,187.817 206.702,187.483 210.5,186.5 Z"/></g>
<g><path style="opacity:1" fill="#b5dbcc" d="M 277.5,184.5 C 277.5,185.833 277.5,187.167 277.5,188.5C 255.5,188.5 233.5,188.5 211.5,188.5C 211.5,188.167 211.5,187.833 211.5,187.5C 233.167,187.5 254.833,187.5 276.5,187.5C 276.263,186.209 276.596,185.209 277.5,184.5 Z"/></g>
<g><path style="opacity:1" fill="#ec936c" d="M 290.5,183.5 C 290.5,184.833 290.5,186.167 290.5,187.5C 291.833,187.5 293.167,187.5 294.5,187.5C 302.833,187.5 311.167,187.5 319.5,187.5C 320.791,187.263 321.791,187.596 322.5,188.5C 311.5,188.5 300.5,188.5 289.5,188.5C 289.216,186.585 289.549,184.919 290.5,183.5 Z"/></g>
<g><path style="opacity:1" fill="#fc6e56" d="M 352.5,211.5 C 347.38,207.953 342.714,203.953 338.5,199.5C 340.378,196.851 342.378,194.184 344.5,191.5C 346.409,190.652 348.409,190.318 350.5,190.5C 350.343,191.873 350.51,193.207 351,194.5C 351.333,192.167 351.667,189.833 352,187.5C 353.71,195.612 353.877,203.612 352.5,211.5 Z"/></g>
<g><path style="opacity:1" fill="#f4b9a9" d="M 354.5,182.5 C 355.823,192.674 355.823,203.007 354.5,213.5C 353.893,213.376 353.56,213.043 353.5,212.5C 354.494,202.681 354.827,192.681 354.5,182.5 Z"/></g>
<g><path style="opacity:1" fill="#8fa7a8" d="M 358.5,160.5 C 366.871,167.876 375.204,175.21 383.5,182.5C 385.833,185.5 388.5,188.167 391.5,190.5C 401.263,199.318 410.597,208.651 419.5,218.5C 417.5,218.5 415.5,218.5 413.5,218.5C 413.5,219.833 413.5,221.167 413.5,222.5C 412.167,222.5 410.833,222.5 409.5,222.5C 409.5,223.5 409.5,224.5 409.5,225.5C 408.178,225.33 407.011,225.663 406,226.5C 405.503,229.146 405.336,231.813 405.5,234.5C 399.427,233.262 395.761,235.595 394.5,241.5C 393.167,241.5 391.833,241.5 390.5,241.5C 391.248,238.263 393.248,236.097 396.5,235C 394.422,232.866 392.588,233.032 391,235.5C 388.313,234.287 385.48,233.62 382.5,233.5C 382.5,234.5 382.5,235.5 382.5,236.5C 381.542,236.047 380.708,235.381 380,234.5C 379.667,235.167 379.333,235.833 379,236.5C 378.3,234.968 377.134,233.968 375.5,233.5C 375.001,230.783 373.835,228.449 372,226.5C 371.667,227.167 371.333,227.833 371,228.5C 369.412,226.192 367.412,225.525 365,226.5C 364.768,225.263 364.268,224.263 363.5,223.5C 364.927,220.976 366.094,218.31 367,215.5C 367.667,203.5 367.667,191.5 367,179.5C 365.408,172.536 362.575,166.203 358.5,160.5 Z"/></g>
<g><path style="opacity:1" fill="#eae7dd" d="M 218.5,200.5 C 249.84,200.167 281.174,200.5 312.5,201.5C 310.411,204.561 308.411,207.561 306.5,210.5C 279.52,208.509 252.187,207.842 224.5,208.5C 222.147,206.14 220.147,203.473 218.5,200.5 Z"/></g>
<g><path style="opacity:1" fill="#ebe3d8" d="M 205.5,200.5 C 207.432,203.366 209.099,206.366 210.5,209.5C 201.983,209.174 193.65,209.507 185.5,210.5C 182.982,207.462 180.982,204.129 179.5,200.5C 188.167,200.5 196.833,200.5 205.5,200.5 Z"/></g>
<g><path style="opacity:1" fill="#544e62" d="M 205.5,200.5 C 209.833,200.5 214.167,200.5 218.5,200.5C 220.147,203.473 222.147,206.14 224.5,208.5C 224.5,208.833 224.5,209.167 224.5,209.5C 219.833,209.5 215.167,209.5 210.5,209.5C 209.099,206.366 207.432,203.366 205.5,200.5 Z"/></g>
<g><path style="opacity:1" fill="#f1d1be" d="M 224.5,209.5 C 224.5,209.167 224.5,208.833 224.5,208.5C 252.187,207.842 279.52,208.509 306.5,210.5C 306.167,210.5 305.833,210.5 305.5,210.5C 278.672,209.502 251.672,209.169 224.5,209.5 Z"/></g>
<g><path style="opacity:1" fill="#f28f83" d="M 210.5,209.5 C 215.167,209.5 219.833,209.5 224.5,209.5C 251.672,209.169 278.672,209.502 305.5,210.5C 304.488,211.872 303.488,213.205 302.5,214.5C 302.5,213.5 302.5,212.5 302.5,211.5C 297.881,210.686 293.214,210.353 288.5,210.5C 255.5,210.5 222.5,210.5 189.5,210.5C 189.5,212.167 189.5,213.833 189.5,215.5C 188.197,213.858 186.864,212.191 185.5,210.5C 193.65,209.507 201.983,209.174 210.5,209.5 Z"/></g>
<g><path style="opacity:1" fill="#fe7f79" d="M 288.5,210.5 C 293.214,210.353 297.881,210.686 302.5,211.5C 302.5,212.5 302.5,213.5 302.5,214.5C 300.066,218.382 297.399,222.048 294.5,225.5C 294.631,224.624 294.298,223.957 293.5,223.5C 291.055,221.722 288.389,220.389 285.5,219.5C 282.365,220.458 280.698,222.625 280.5,226C 272.566,227.068 264.899,228.901 257.5,231.5C 256.558,234.42 255.224,237.086 253.5,239.5C 251.071,239.884 248.737,240.551 246.5,241.5C 246.643,243.262 246.309,244.929 245.5,246.5C 241.744,248.404 237.744,249.571 233.5,250C 232.663,251.011 232.33,252.178 232.5,253.5C 231.5,253.5 230.5,253.5 229.5,253.5C 229.5,252.167 229.5,250.833 229.5,249.5C 224.437,250.922 223.437,253.755 226.5,258C 224.583,257.973 222.916,257.139 221.5,255.5C 221.167,255.833 220.833,256.167 220.5,256.5C 223.283,258.507 224.95,261.173 225.5,264.5C 219.812,257.47 214.478,250.137 209.5,242.5C 209.03,239.066 210.196,236.399 213,234.5C 217.111,233.596 221.278,233.263 225.5,233.5C 225.5,232.5 225.5,231.5 225.5,230.5C 220.489,230.666 215.489,230.499 210.5,230C 222.167,228.699 233.834,228.532 245.5,229.5C 249.685,229.064 253.685,228.064 257.5,226.5C 257.5,224.5 257.5,222.5 257.5,220.5C 263.276,219.95 268.943,218.784 274.5,217C 277.695,213.89 281.362,212.724 285.5,213.5C 286.855,212.812 287.855,211.812 288.5,210.5 Z"/></g>
<g><path style="opacity:1" fill="#8eb0ad" d="M 353.5,226.5 C 352.224,226.33 350.724,226.663 349,227.5C 348.055,227.095 347.388,226.428 347,225.5C 346,225.833 345,226.167 344,226.5C 343.667,225.833 343.333,225.167 343,224.5C 340.699,225.867 338.199,226.534 335.5,226.5C 335.5,225.167 335.5,223.833 335.5,222.5C 331.5,222.5 327.5,222.5 323.5,222.5C 323.5,223.833 323.5,225.167 323.5,226.5C 319.925,226.452 317.591,228.119 316.5,231.5C 309.576,234.09 304.576,238.757 301.5,245.5C 299.922,246.64 298.256,247.14 296.5,247C 298.607,245.736 299.607,243.903 299.5,241.5C 308.121,228.881 317.121,216.548 326.5,204.5C 335.754,211.613 344.754,218.946 353.5,226.5 Z"/></g>
<g><path style="opacity:1" fill="#fe8777" d="M 288.5,210.5 C 287.855,211.812 286.855,212.812 285.5,213.5C 281.362,212.724 277.695,213.89 274.5,217C 268.943,218.784 263.276,219.95 257.5,220.5C 257.5,222.5 257.5,224.5 257.5,226.5C 253.685,228.064 249.685,229.064 245.5,229.5C 233.834,228.532 222.167,228.699 210.5,230C 215.489,230.499 220.489,230.666 225.5,230.5C 225.5,231.5 225.5,232.5 225.5,233.5C 221.278,233.263 217.111,233.596 213,234.5C 210.196,236.399 209.03,239.066 209.5,242.5C 202.601,233.716 195.935,224.716 189.5,215.5C 189.5,213.833 189.5,212.167 189.5,210.5C 222.5,210.5 255.5,210.5 288.5,210.5 Z"/></g>
<g><path style="opacity:1" fill="#fe797a" d="M 294.5,225.5 C 289.522,233.137 284.188,240.47 278.5,247.5C 278.262,244.852 276.928,243.018 274.5,242C 268.714,240.882 263.047,240.715 257.5,241.5C 257.5,244.167 257.5,246.833 257.5,249.5C 254.833,249.5 252.167,249.5 249.5,249.5C 249.5,252.167 249.5,254.833 249.5,257.5C 246.833,257.5 244.167,257.5 241.5,257.5C 241.5,259.5 241.5,261.5 241.5,263.5C 238.282,263.024 235.448,261.691 233,259.5C 229.15,262.304 228.816,265.304 232,268.5C 232.494,270.134 232.66,271.801 232.5,273.5C 229.815,270.81 227.482,267.81 225.5,264.5C 224.95,261.173 223.283,258.507 220.5,256.5C 220.833,256.167 221.167,255.833 221.5,255.5C 222.916,257.139 224.583,257.973 226.5,258C 223.437,253.755 224.437,250.922 229.5,249.5C 229.5,250.833 229.5,252.167 229.5,253.5C 230.5,253.5 231.5,253.5 232.5,253.5C 232.33,252.178 232.663,251.011 233.5,250C 237.744,249.571 241.744,248.404 245.5,246.5C 246.309,244.929 246.643,243.262 246.5,241.5C 248.737,240.551 251.071,239.884 253.5,239.5C 255.224,237.086 256.558,234.42 257.5,231.5C 264.899,228.901 272.566,227.068 280.5,226C 280.698,222.625 282.365,220.458 285.5,219.5C 288.389,220.389 291.055,221.722 293.5,223.5C 294.298,223.957 294.631,224.624 294.5,225.5 Z"/></g>
<g><path style="opacity:1" fill="#8aabac" d="M 353.5,226.5 C 357.378,226.976 360.712,225.976 363.5,223.5C 364.268,224.263 364.768,225.263 365,226.5C 367.412,225.525 369.412,226.192 371,228.5C 371.333,227.833 371.667,227.167 372,226.5C 373.835,228.449 375.001,230.783 375.5,233.5C 377.134,233.968 378.3,234.968 379,236.5C 379.333,235.833 379.667,235.167 380,234.5C 380.708,235.381 381.542,236.047 382.5,236.5C 383.301,238.042 383.634,239.708 383.5,241.5C 382.448,241.649 381.448,241.483 380.5,241C 378.269,239.39 376.269,237.557 374.5,235.5C 371.914,234.52 369.247,234.187 366.5,234.5C 366.5,235.5 366.5,236.5 366.5,237.5C 367.978,237.238 369.311,237.571 370.5,238.5C 367.135,240.652 363.468,241.652 359.5,241.5C 359.5,246.833 359.5,252.167 359.5,257.5C 354.167,257.5 348.833,257.5 343.5,257.5C 343.5,260.167 343.5,262.833 343.5,265.5C 340.833,265.5 338.167,265.5 335.5,265.5C 335.5,267.167 335.5,268.833 335.5,270.5C 332.833,270.5 330.167,270.5 327.5,270.5C 327.5,271.5 327.5,272.5 327.5,273.5C 326.167,273.5 324.833,273.5 323.5,273.5C 323.5,274.833 323.5,276.167 323.5,277.5C 322.167,277.5 320.833,277.5 319.5,277.5C 319.5,276.167 319.5,274.833 319.5,273.5C 317.167,273.5 314.833,273.5 312.5,273.5C 312.5,275.833 312.5,278.167 312.5,280.5C 309.833,280.833 307.167,281.167 304.5,281.5C 304.5,283.833 304.5,286.167 304.5,288.5C 299.167,288.5 293.833,288.5 288.5,288.5C 288.802,293.679 288.135,298.679 286.5,303.5C 284.833,303.5 283.167,303.5 281.5,303.5C 281.5,306.167 281.5,308.833 281.5,311.5C 278.833,311.5 276.167,311.5 273.5,311.5C 273.296,314.518 272.963,317.518 272.5,320.5C 270.167,320.5 267.833,320.5 265.5,320.5C 265.007,322.806 264.674,325.139 264.5,327.5C 262.167,327.5 259.833,327.5 257.5,327.5C 257.663,325.143 257.497,322.81 257,320.5C 255.989,321.337 254.822,321.67 253.5,321.5C 253.827,311.319 253.494,301.319 252.5,291.5C 260.247,289.702 266.747,285.702 272,279.5C 280.643,266.372 289.809,253.705 299.5,241.5C 299.607,243.903 298.607,245.736 296.5,247C 298.256,247.14 299.922,246.64 301.5,245.5C 304.576,238.757 309.576,234.09 316.5,231.5C 317.591,228.119 319.925,226.452 323.5,226.5C 323.5,225.167 323.5,223.833 323.5,222.5C 327.5,222.5 331.5,222.5 335.5,222.5C 335.5,223.833 335.5,225.167 335.5,226.5C 338.199,226.534 340.699,225.867 343,224.5C 343.333,225.167 343.667,225.833 344,226.5C 345,226.167 346,225.833 347,225.5C 347.388,226.428 348.055,227.095 349,227.5C 350.724,226.663 352.224,226.33 353.5,226.5 Z"/></g>
<g><path style="opacity:1" fill="#90d9c0" d="M 184.5,231.5 C 189.81,236.785 194.144,242.785 197.5,249.5C 198.379,251.228 199.046,253.061 199.5,255C 199.333,255.833 199.167,256.667 199,257.5C 198.333,256.167 197.667,256.167 197,257.5C 196.499,261.51 195.999,265.51 195.5,269.5C 194.167,269.5 192.833,269.5 191.5,269.5C 191.5,270.833 191.5,272.167 191.5,273.5C 190.167,273.5 188.833,273.5 187.5,273.5C 187.425,270.794 187.092,268.127 186.5,265.5C 184.167,265.5 181.833,265.5 179.5,265.5C 178.327,268.067 177.161,270.733 176,273.5C 175.275,272.941 174.442,272.608 173.5,272.5C 168.907,274.478 164.24,276.145 159.5,277.5C 159.5,278.5 159.5,279.5 159.5,280.5C 155.865,281.114 152.198,281.448 148.5,281.5C 148.5,283.833 148.5,286.167 148.5,288.5C 145.5,288.5 142.5,288.5 139.5,288.5C 139.5,285.833 139.5,283.167 139.5,280.5C 137.139,280.674 134.806,281.007 132.5,281.5C 132.5,283.833 132.5,286.167 132.5,288.5C 127.167,288.5 121.833,288.5 116.5,288.5C 116.5,285.833 116.5,283.167 116.5,280.5C 103.499,280.8 90.4989,281.133 77.5,281.5C 77.5,283.833 77.5,286.167 77.5,288.5C 75.1667,288.5 72.8333,288.5 70.5,288.5C 70.7678,286.901 70.4345,285.568 69.5,284.5C 70.1925,278.137 70.5258,271.804 70.5,265.5C 72.8333,265.5 75.1667,265.5 77.5,265.5C 77.5,266.833 77.5,268.167 77.5,269.5C 80.7521,268.623 84.0854,267.957 87.5,267.5C 90.9146,267.957 94.2479,268.623 97.5,269.5C 97.5,268.167 97.5,266.833 97.5,265.5C 98.5676,264.566 99.901,264.232 101.5,264.5C 101.5,263.5 101.5,262.5 101.5,261.5C 104.167,261.5 106.833,261.5 109.5,261.5C 109.5,260.167 109.5,258.833 109.5,257.5C 111.833,257.5 114.167,257.5 116.5,257.5C 116.5,260.167 116.5,262.833 116.5,265.5C 127.316,264.586 137.816,264.586 148,265.5C 148.49,264.207 148.657,262.873 148.5,261.5C 153.5,261.5 158.5,261.5 163.5,261.5C 163.5,262.5 163.5,263.5 163.5,264.5C 164.833,264.5 166.167,264.5 167.5,264.5C 167.5,263.5 167.5,262.5 167.5,261.5C 168.833,261.5 170.167,261.5 171.5,261.5C 171.5,260.167 171.5,258.833 171.5,257.5C 170.167,257.5 168.833,257.5 167.5,257.5C 167.5,254.833 167.5,252.167 167.5,249.5C 168.833,249.5 170.167,249.5 171.5,249.5C 171.5,248.167 171.5,246.833 171.5,245.5C 172.833,245.5 174.167,245.5 175.5,245.5C 175.5,244.167 175.5,242.833 175.5,241.5C 176.833,241.5 178.167,241.5 179.5,241.5C 179.5,240.5 179.5,239.5 179.5,238.5C 175.51,238.001 171.51,237.501 167.5,237C 172.188,236.969 176.688,236.136 181,234.5C 181.95,235.022 182.784,235.689 183.5,236.5C 183.833,236.167 184.167,235.833 184.5,235.5C 182.973,233.807 181.64,231.973 180.5,230C 182.066,229.7 183.399,230.2 184.5,231.5 Z"/></g>
<g><path style="opacity:1" fill="#8b9da9" d="M 432.5,240.5 C 434.18,262.703 431.847,284.369 425.5,305.5C 425.24,299.828 424.907,294.161 424.5,288.5C 419.989,288.891 415.655,288.225 411.5,286.5C 409.666,287.754 407.666,288.421 405.5,288.5C 405.5,289.833 405.5,291.167 405.5,292.5C 404.5,292.5 403.5,292.5 402.5,292.5C 402.5,293.833 402.5,295.167 402.5,296.5C 401.167,296.5 399.833,296.5 398.5,296.5C 398.5,297.833 398.5,299.167 398.5,300.5C 399.552,300.351 400.552,300.517 401.5,301C 399.009,301.259 396.509,301.093 394,300.5C 387.357,301.311 383.524,304.977 382.5,311.5C 379.833,311.833 377.167,312.167 374.5,312.5C 374.5,314.833 374.5,317.167 374.5,319.5C 371.833,319.5 369.167,319.5 366.5,319.5C 366.5,322.167 366.5,324.833 366.5,327.5C 361.167,327.5 355.833,327.5 350.5,327.5C 350.5,330.167 350.5,332.833 350.5,335.5C 346.833,335.5 343.167,335.5 339.5,335.5C 339.5,336.833 339.5,338.167 339.5,339.5C 338.167,339.5 336.833,339.5 335.5,339.5C 335.5,340.833 335.5,342.167 335.5,343.5C 332.833,343.5 330.167,343.5 327.5,343.5C 327.5,340.833 327.5,338.167 327.5,335.5C 330.167,335.5 332.833,335.5 335.5,335.5C 335.5,332.833 335.5,330.167 335.5,327.5C 338.167,327.5 340.833,327.5 343.5,327.5C 343.5,325.167 343.5,322.833 343.5,320.5C 350.5,322.167 353.167,319.5 351.5,312.5C 358.5,314.167 361.167,311.5 359.5,304.5C 361.833,304.5 364.167,304.5 366.5,304.5C 366.5,301.833 366.5,299.167 366.5,296.5C 369.167,296.5 371.833,296.5 374.5,296.5C 374.5,293.833 374.5,291.167 374.5,288.5C 377.167,288.5 379.833,288.5 382.5,288.5C 382.5,285.833 382.5,283.167 382.5,280.5C 387.56,280.508 392.56,280.674 397.5,281C 398.013,278.282 398.013,275.449 397.5,272.5C 402.931,272.919 408.264,272.919 413.5,272.5C 413.52,270.857 412.853,269.524 411.5,268.5C 412.167,267.5 412.833,266.5 413.5,265.5C 413.218,263.013 413.218,260.347 413.5,257.5C 416.167,257.5 418.833,257.5 421.5,257.5C 421.5,254.833 421.5,252.167 421.5,249.5C 423.833,249.5 426.167,249.5 428.5,249.5C 428.5,246.833 428.5,244.167 428.5,241.5C 427.5,241.5 426.5,241.5 425.5,241.5C 425.5,242.833 425.5,244.167 425.5,245.5C 422.833,245.5 420.167,245.5 417.5,245.5C 417.5,246.833 417.5,248.167 417.5,249.5C 416.167,249.5 414.833,249.5 413.5,249.5C 413.5,246.833 413.5,244.167 413.5,241.5C 416.167,241.5 418.833,241.5 421.5,241.5C 421.5,238.833 421.5,236.167 421.5,233.5C 424.579,233.26 427.579,233.593 430.5,234.5C 431.169,236.631 431.835,238.631 432.5,240.5 Z"/></g>
<g><path style="opacity:1" fill="#8aa5aa" d="M 390.5,241.5 C 389.731,244.171 389.398,246.671 389.5,249C 391.441,249.743 393.274,249.576 395,248.5C 397.533,251.073 399.7,253.907 401.5,257C 397.848,257.499 394.182,257.665 390.5,257.5C 390.5,258.833 390.5,260.167 390.5,261.5C 389.167,261.5 387.833,261.5 386.5,261.5C 386.5,262.833 386.5,264.167 386.5,265.5C 385.167,265.5 383.833,265.5 382.5,265.5C 382.5,266.833 382.5,268.167 382.5,269.5C 381.167,269.5 379.833,269.5 378.5,269.5C 378.5,270.833 378.5,272.167 378.5,273.5C 377.167,273.5 375.833,273.5 374.5,273.5C 374.5,274.833 374.5,276.167 374.5,277.5C 371.833,277.5 369.167,277.5 366.5,277.5C 366.5,281.167 366.5,284.833 366.5,288.5C 364.167,288.5 361.833,288.5 359.5,288.5C 359.167,291.167 358.833,293.833 358.5,296.5C 353.225,296.981 348.225,298.314 343.5,300.5C 343.5,301.833 343.5,303.167 343.5,304.5C 342.167,304.5 340.833,304.5 339.5,304.5C 339.5,305.5 339.5,306.5 339.5,307.5C 338.167,307.5 336.833,307.5 335.5,307.5C 335.5,308.833 335.5,310.167 335.5,311.5C 332.833,311.833 330.167,312.167 327.5,312.5C 327.5,315.167 327.5,317.833 327.5,320.5C 326.167,320.5 324.833,320.5 323.5,320.5C 321.167,320.5 318.833,320.5 316.5,320.5C 316.5,321.5 316.5,322.5 316.5,323.5C 315.167,323.5 313.833,323.5 312.5,323.5C 312.5,326.167 312.5,328.833 312.5,331.5C 313.833,331.5 315.167,331.5 316.5,331.5C 316.5,330.167 316.5,328.833 316.5,327.5C 317.5,327.5 318.5,327.5 319.5,327.5C 319.5,330.167 319.5,332.833 319.5,335.5C 313.021,334.989 306.687,334.989 300.5,335.5C 300.5,336.833 300.5,338.167 300.5,339.5C 299.167,339.5 297.833,339.5 296.5,339.5C 296.5,340.5 296.5,341.5 296.5,342.5C 293.833,342.833 291.167,343.167 288.5,343.5C 287.461,347.286 285.961,350.953 284,354.5C 283.667,353.5 283.333,352.5 283,351.5C 281.86,354.102 281.027,356.769 280.5,359.5C 279.5,359.5 278.5,359.5 277.5,359.5C 277.155,365.155 279.822,367.822 285.5,367.5C 285.333,367.833 285.167,368.167 285,368.5C 282.347,368.318 279.68,367.985 277,367.5C 275.601,368.227 274.101,368.727 272.5,369C 275.529,369.539 278.529,370.206 281.5,371C 280.944,371.383 280.611,371.883 280.5,372.5C 271.167,372.5 261.833,372.5 252.5,372.5C 252.5,345.5 252.5,318.5 252.5,291.5C 253.494,301.319 253.827,311.319 253.5,321.5C 254.822,321.67 255.989,321.337 257,320.5C 257.497,322.81 257.663,325.143 257.5,327.5C 259.833,327.5 262.167,327.5 264.5,327.5C 264.674,325.139 265.007,322.806 265.5,320.5C 267.833,320.5 270.167,320.5 272.5,320.5C 272.963,317.518 273.296,314.518 273.5,311.5C 276.167,311.5 278.833,311.5 281.5,311.5C 281.5,308.833 281.5,306.167 281.5,303.5C 283.167,303.5 284.833,303.5 286.5,303.5C 288.135,298.679 288.802,293.679 288.5,288.5C 293.833,288.5 299.167,288.5 304.5,288.5C 304.5,286.167 304.5,283.833 304.5,281.5C 307.167,281.167 309.833,280.833 312.5,280.5C 312.5,278.167 312.5,275.833 312.5,273.5C 314.833,273.5 317.167,273.5 319.5,273.5C 319.5,274.833 319.5,276.167 319.5,277.5C 320.833,277.5 322.167,277.5 323.5,277.5C 323.5,276.167 323.5,274.833 323.5,273.5C 324.833,273.5 326.167,273.5 327.5,273.5C 327.5,272.5 327.5,271.5 327.5,270.5C 330.167,270.5 332.833,270.5 335.5,270.5C 335.5,268.833 335.5,267.167 335.5,265.5C 338.167,265.5 340.833,265.5 343.5,265.5C 343.5,262.833 343.5,260.167 343.5,257.5C 348.833,257.5 354.167,257.5 359.5,257.5C 359.5,252.167 359.5,246.833 359.5,241.5C 363.468,241.652 367.135,240.652 370.5,238.5C 369.311,237.571 367.978,237.238 366.5,237.5C 366.5,236.5 366.5,235.5 366.5,234.5C 369.247,234.187 371.914,234.52 374.5,235.5C 376.269,237.557 378.269,239.39 380.5,241C 381.448,241.483 382.448,241.649 383.5,241.5C 383.634,239.708 383.301,238.042 382.5,236.5C 382.5,235.5 382.5,234.5 382.5,233.5C 385.48,233.62 388.313,234.287 391,235.5C 392.588,233.032 394.422,232.866 396.5,235C 393.248,236.097 391.248,238.263 390.5,241.5 Z"/></g>
<g><path style="opacity:1" fill="#fd757b" d="M 278.5,247.5 C 271.875,257.237 264.875,266.737 257.5,276C 251.886,279.209 245.886,280.209 239.5,279C 236.405,278.065 234.071,276.231 232.5,273.5C 232.66,271.801 232.494,270.134 232,268.5C 228.816,265.304 229.15,262.304 233,259.5C 235.448,261.691 238.282,263.024 241.5,263.5C 241.5,261.5 241.5,259.5 241.5,257.5C 244.167,257.5 246.833,257.5 249.5,257.5C 249.5,254.833 249.5,252.167 249.5,249.5C 252.167,249.5 254.833,249.5 257.5,249.5C 257.5,246.833 257.5,244.167 257.5,241.5C 263.047,240.715 268.714,240.882 274.5,242C 276.928,243.018 278.262,244.852 278.5,247.5 Z"/></g>
<g><path style="opacity:1" fill="#95dac0" d="M 171.5,212.5 C 176.217,218.554 180.55,224.887 184.5,231.5C 183.399,230.2 182.066,229.7 180.5,230C 181.64,231.973 182.973,233.807 184.5,235.5C 184.167,235.833 183.833,236.167 183.5,236.5C 182.784,235.689 181.95,235.022 181,234.5C 176.688,236.136 172.188,236.969 167.5,237C 171.51,237.501 175.51,238.001 179.5,238.5C 179.5,239.5 179.5,240.5 179.5,241.5C 178.167,241.5 176.833,241.5 175.5,241.5C 175.5,242.833 175.5,244.167 175.5,245.5C 174.167,245.5 172.833,245.5 171.5,245.5C 171.5,246.833 171.5,248.167 171.5,249.5C 170.167,249.5 168.833,249.5 167.5,249.5C 167.5,252.167 167.5,254.833 167.5,257.5C 168.833,257.5 170.167,257.5 171.5,257.5C 171.5,258.833 171.5,260.167 171.5,261.5C 170.167,261.5 168.833,261.5 167.5,261.5C 167.5,262.5 167.5,263.5 167.5,264.5C 166.167,264.5 164.833,264.5 163.5,264.5C 163.5,263.5 163.5,262.5 163.5,261.5C 158.5,261.5 153.5,261.5 148.5,261.5C 148.657,262.873 148.49,264.207 148,265.5C 137.816,264.586 127.316,264.586 116.5,265.5C 116.5,262.833 116.5,260.167 116.5,257.5C 114.167,257.5 111.833,257.5 109.5,257.5C 109.5,258.833 109.5,260.167 109.5,261.5C 106.833,261.5 104.167,261.5 101.5,261.5C 101.5,262.5 101.5,263.5 101.5,264.5C 99.901,264.232 98.5676,264.566 97.5,265.5C 92.1563,265.666 86.8229,265.499 81.5,265C 85.1516,264.501 88.8183,264.335 92.5,264.5C 92.5,262.167 92.5,259.833 92.5,257.5C 85.1667,257.5 77.8333,257.5 70.5,257.5C 70.1975,266.447 68.8642,266.447 66.5,257.5C 67.5,257.5 68.5,257.5 69.5,257.5C 69.22,250.6 69.22,243.6 69.5,236.5C 83.8915,236.015 92.8915,236.348 96.5,237.5C 96.5,238.833 96.5,240.167 96.5,241.5C 102.167,241.5 107.833,241.5 113.5,241.5C 113.5,239.833 113.5,238.167 113.5,236.5C 130.18,236.833 146.847,236.499 163.5,235.5C 147.848,234.501 132.181,234.167 116.5,234.5C 116.5,233.167 116.5,231.833 116.5,230.5C 123.167,230.5 129.833,230.5 136.5,230.5C 136.5,229.167 136.5,227.833 136.5,226.5C 137.5,226.5 138.5,226.5 139.5,226.5C 139.5,227.833 139.5,229.167 139.5,230.5C 148.961,230.067 158.294,230.733 167.5,232.5C 167.5,228.833 167.5,225.167 167.5,221.5C 166.167,221.5 164.833,221.5 163.5,221.5C 163.5,220.5 163.5,219.5 163.5,218.5C 166.025,217.36 168.692,216.693 171.5,216.5C 171.5,215.167 171.5,213.833 171.5,212.5 Z"/></g>
<g><path style="opacity:0.995" fill="#96d9c3" d="M 64.5,222.5 C 64.0016,225.681 64.8349,228.347 67,230.5C 67.5831,228.998 68.4164,227.665 69.5,226.5C 69.8333,227 70.1667,227.5 70.5,228C 69.3078,230.055 69.3078,232.055 70.5,234C 75.4889,234.499 80.4889,234.666 85.5,234.5C 85.5,231.5 85.5,228.5 85.5,225.5C 88.1194,225.232 90.6194,225.565 93,226.5C 93.4974,229.146 93.6641,231.813 93.5,234.5C 101.226,234.136 108.893,234.136 116.5,234.5C 132.181,234.167 147.848,234.501 163.5,235.5C 146.847,236.499 130.18,236.833 113.5,236.5C 113.5,238.167 113.5,239.833 113.5,241.5C 107.833,241.5 102.167,241.5 96.5,241.5C 96.5,240.167 96.5,238.833 96.5,237.5C 92.8915,236.348 83.8915,236.015 69.5,236.5C 69.22,243.6 69.22,250.6 69.5,257.5C 68.5,257.5 67.5,257.5 66.5,257.5C 68.8642,266.447 70.1975,266.447 70.5,257.5C 77.8333,257.5 85.1667,257.5 92.5,257.5C 92.5,259.833 92.5,262.167 92.5,264.5C 88.8183,264.335 85.1516,264.501 81.5,265C 86.8229,265.499 92.1563,265.666 97.5,265.5C 97.5,266.833 97.5,268.167 97.5,269.5C 94.2479,268.623 90.9146,267.957 87.5,267.5C 84.0854,267.957 80.7521,268.623 77.5,269.5C 77.5,268.167 77.5,266.833 77.5,265.5C 75.1667,265.5 72.8333,265.5 70.5,265.5C 70.5258,271.804 70.1925,278.137 69.5,284.5C 69.1971,288.237 68.1971,291.737 66.5,295C 68.0479,298.665 68.7145,302.499 68.5,306.5C 64.2432,294.304 61.9098,281.638 61.5,268.5C 61.3336,259.494 61.5002,250.494 62,241.5C 62.1512,234.932 62.9846,228.599 64.5,222.5 Z"/></g>
<g><path style="opacity:0.156" fill="#bae0d4" d="M 64.5,214.5 C 64.5,217.167 64.5,219.833 64.5,222.5C 62.9846,228.599 62.1512,234.932 62,241.5C 61.5002,250.494 61.3336,259.494 61.5,268.5C 59.705,250.361 60.705,232.361 64.5,214.5 Z"/></g>
<g><path style="opacity:1" fill="#8dd2bf" d="M 197.5,249.5 C 204.471,256.776 210.471,264.776 215.5,273.5C 216.832,282.416 215.666,282.416 212,273.5C 211.667,274.833 211.333,276.167 211,277.5C 210.667,275.5 210.333,273.5 210,271.5C 209.29,272.973 208.124,273.64 206.5,273.5C 205.902,278.44 205.902,283.44 206.5,288.5C 205.167,288.5 203.833,288.5 202.5,288.5C 202.5,289.833 202.5,291.167 202.5,292.5C 201.167,292.5 199.833,292.5 198.5,292.5C 198.5,293.5 198.5,294.5 198.5,295.5C 197.5,295.5 196.5,295.5 195.5,295.5C 195.5,296.833 195.5,298.167 195.5,299.5C 194.167,299.5 192.833,299.5 191.5,299.5C 191.5,300.833 191.5,302.167 191.5,303.5C 188.91,303.396 186.577,304.063 184.5,305.5C 182.865,304.954 181.199,304.62 179.5,304.5C 179.5,307.167 179.5,309.833 179.5,312.5C 176.833,312.5 174.167,312.5 171.5,312.5C 171.5,315.167 171.5,317.833 171.5,320.5C 168.833,320.5 166.167,320.5 163.5,320.5C 163.5,322.833 163.5,325.167 163.5,327.5C 160.833,327.5 158.167,327.5 155.5,327.5C 155.5,330.167 155.5,332.833 155.5,335.5C 153.167,335.5 150.833,335.5 148.5,335.5C 148.167,338.167 147.833,340.833 147.5,343.5C 145.131,343.149 142.797,342.982 140.5,343C 139.62,344.356 139.286,345.856 139.5,347.5C 138.5,347.5 137.5,347.5 136.5,347.5C 136.5,348.5 136.5,349.5 136.5,350.5C 135.167,350.5 133.833,350.5 132.5,350.5C 132.5,353.167 132.5,355.833 132.5,358.5C 127.188,359.109 121.854,359.609 116.5,360C 121.794,360.818 121.794,361.318 116.5,361.5C 116.666,366.511 116.499,371.511 116,376.5C 115.692,377.308 115.192,377.975 114.5,378.5C 113.269,377.349 113.269,376.183 114.5,375C 112.754,374.529 111.087,373.862 109.5,373C 109.07,372.08 108.736,371.247 108.5,370.5C 105.167,371.833 104.167,370.833 105.5,367.5C 104.807,365.289 103.641,364.955 102,366.5C 100.923,365.571 99.7564,364.904 98.5,364.5C 94.4516,360.746 91.1183,356.413 88.5,351.5C 89.4959,351.414 90.3292,351.748 91,352.5C 91.3333,350.5 91.6667,348.5 92,346.5C 93.5664,351.245 96.7331,353.912 101.5,354.5C 101.5,350.833 101.5,347.167 101.5,343.5C 106.348,343.359 111.015,343.359 115.5,343.5C 116.48,340.914 116.813,338.247 116.5,335.5C 119.167,335.5 121.833,335.5 124.5,335.5C 124.187,332.753 124.52,330.086 125.5,327.5C 126.799,325.242 127.799,322.908 128.5,320.5C 129.833,320.5 131.167,320.5 132.5,320.5C 132.5,319.167 132.5,317.833 132.5,316.5C 136.472,315.171 140.472,313.838 144.5,312.5C 144.5,311.167 144.5,309.833 144.5,308.5C 145.5,308.5 146.5,308.5 147.5,308.5C 147.5,307.167 147.5,305.833 147.5,304.5C 149.833,304.5 152.167,304.5 154.5,304.5C 154.357,302.738 154.691,301.071 155.5,299.5C 157.99,297.917 160.657,296.917 163.5,296.5C 163.5,295.167 163.5,293.833 163.5,292.5C 166.167,292.5 168.833,292.5 171.5,292.5C 171.5,291.167 171.5,289.833 171.5,288.5C 173.833,288.5 176.167,288.5 178.5,288.5C 178.5,285.833 178.5,283.167 178.5,280.5C 181.167,280.5 183.833,280.5 186.5,280.5C 186.993,278.194 187.326,275.861 187.5,273.5C 188.833,273.5 190.167,273.5 191.5,273.5C 191.5,272.167 191.5,270.833 191.5,269.5C 192.833,269.5 194.167,269.5 195.5,269.5C 195.999,265.51 196.499,261.51 197,257.5C 197.667,256.167 198.333,256.167 199,257.5C 199.167,256.667 199.333,255.833 199.5,255C 199.046,253.061 198.379,251.228 197.5,249.5 Z"/></g>
<g><path style="opacity:1" fill="#8ccbbd" d="M 215.5,273.5 C 220.352,281.356 227.019,287.023 235.5,290.5C 236.209,291.404 237.209,291.737 238.5,291.5C 238.5,292.5 238.5,293.5 238.5,294.5C 237.5,294.5 236.5,294.5 235.5,294.5C 235.543,297.91 235.043,301.243 234,304.5C 233.51,303.207 233.343,301.873 233.5,300.5C 231.158,300.504 229.158,301.337 227.5,303C 228.253,304.487 229.086,304.654 230,303.5C 230.818,306.227 230.652,308.894 229.5,311.5C 226.894,313.418 225.894,316.084 226.5,319.5C 223.833,319.833 221.167,320.167 218.5,320.5C 218.737,321.791 218.404,322.791 217.5,323.5C 216.5,323.5 215.5,323.5 214.5,323.5C 214.5,324.833 214.5,326.167 214.5,327.5C 213.167,327.5 211.833,327.5 210.5,327.5C 210.5,328.833 210.5,330.167 210.5,331.5C 209.167,331.5 207.833,331.5 206.5,331.5C 206.5,332.833 206.5,334.167 206.5,335.5C 205.167,335.5 203.833,335.5 202.5,335.5C 202.762,336.978 202.429,338.311 201.5,339.5C 199.126,341.539 197.126,343.872 195.5,346.5C 193.955,347.452 192.288,347.785 190.5,347.5C 190.5,346.167 190.5,344.833 190.5,343.5C 189.5,343.5 188.5,343.5 187.5,343.5C 187.5,344.833 187.5,346.167 187.5,347.5C 186.167,347.5 184.833,347.5 183.5,347.5C 183.5,348.833 183.5,350.167 183.5,351.5C 182.167,351.5 180.833,351.5 179.5,351.5C 179.5,352.833 179.5,354.167 179.5,355.5C 178.167,355.5 176.833,355.5 175.5,355.5C 175.5,356.833 175.5,358.167 175.5,359.5C 174.167,359.5 172.833,359.5 171.5,359.5C 171.5,360.833 171.5,362.167 171.5,363.5C 168.833,363.5 166.167,363.5 163.5,363.5C 163.5,365.833 163.5,368.167 163.5,370.5C 162.167,370.5 160.833,370.5 159.5,370.5C 159.5,371.833 159.5,373.167 159.5,374.5C 157.167,374.5 154.833,374.5 152.5,374.5C 152.5,375.833 152.5,377.167 152.5,378.5C 149.833,379.167 147.167,379.833 144.5,380.5C 144.5,382.5 144.5,384.5 144.5,386.5C 143.167,386.5 141.833,386.5 140.5,386.5C 140.5,390.167 140.5,393.833 140.5,397.5C 142.359,397.461 143.692,398.294 144.5,400C 143.5,400.333 142.5,400.667 141.5,401C 141.833,401.333 142.167,401.667 142.5,402C 141.584,402.374 140.75,402.874 140,403.5C 140.984,401.402 140.651,399.402 139,397.5C 137.192,399.558 135.025,399.892 132.5,398.5C 118.954,389.437 107.621,378.103 98.5,364.5C 99.7564,364.904 100.923,365.571 102,366.5C 103.641,364.955 104.807,365.289 105.5,367.5C 104.167,370.833 105.167,371.833 108.5,370.5C 108.736,371.247 109.07,372.08 109.5,373C 111.087,373.862 112.754,374.529 114.5,375C 113.269,376.183 113.269,377.349 114.5,378.5C 115.192,377.975 115.692,377.308 116,376.5C 116.499,371.511 116.666,366.511 116.5,361.5C 121.794,361.318 121.794,360.818 116.5,360C 121.854,359.609 127.188,359.109 132.5,358.5C 132.5,355.833 132.5,353.167 132.5,350.5C 133.833,350.5 135.167,350.5 136.5,350.5C 136.5,349.5 136.5,348.5 136.5,347.5C 137.5,347.5 138.5,347.5 139.5,347.5C 139.286,345.856 139.62,344.356 140.5,343C 142.797,342.982 145.131,343.149 147.5,343.5C 147.833,340.833 148.167,338.167 148.5,335.5C 150.833,335.5 153.167,335.5 155.5,335.5C 155.5,332.833 155.5,330.167 155.5,327.5C 158.167,327.5 160.833,327.5 163.5,327.5C 163.5,325.167 163.5,322.833 163.5,320.5C 166.167,320.5 168.833,320.5 171.5,320.5C 171.5,317.833 171.5,315.167 171.5,312.5C 174.167,312.5 176.833,312.5 179.5,312.5C 179.5,309.833 179.5,307.167 179.5,304.5C 181.199,304.62 182.865,304.954 184.5,305.5C 186.577,304.063 188.91,303.396 191.5,303.5C 191.5,302.167 191.5,300.833 191.5,299.5C 192.833,299.5 194.167,299.5 195.5,299.5C 195.5,298.167 195.5,296.833 195.5,295.5C 196.5,295.5 197.5,295.5 198.5,295.5C 198.5,294.5 198.5,293.5 198.5,292.5C 199.833,292.5 201.167,292.5 202.5,292.5C 202.5,291.167 202.5,289.833 202.5,288.5C 203.833,288.5 205.167,288.5 206.5,288.5C 205.902,283.44 205.902,278.44 206.5,273.5C 208.124,273.64 209.29,272.973 210,271.5C 210.333,273.5 210.667,275.5 211,277.5C 211.333,276.167 211.667,274.833 212,273.5C 215.666,282.416 216.832,282.416 215.5,273.5 Z"/></g>
<g><path style="opacity:1" fill="#8aa0a8" d="M 419.5,218.5 C 420.239,218.369 420.906,218.536 421.5,219C 423.795,223.134 427.129,225.967 431.5,227.5C 432.2,231.798 432.533,236.131 432.5,240.5C 431.835,238.631 431.169,236.631 430.5,234.5C 427.579,233.593 424.579,233.26 421.5,233.5C 421.5,236.167 421.5,238.833 421.5,241.5C 418.833,241.5 416.167,241.5 413.5,241.5C 413.5,244.167 413.5,246.833 413.5,249.5C 414.833,249.5 416.167,249.5 417.5,249.5C 417.5,248.167 417.5,246.833 417.5,245.5C 420.167,245.5 422.833,245.5 425.5,245.5C 425.5,244.167 425.5,242.833 425.5,241.5C 426.5,241.5 427.5,241.5 428.5,241.5C 428.5,244.167 428.5,246.833 428.5,249.5C 426.167,249.5 423.833,249.5 421.5,249.5C 421.5,252.167 421.5,254.833 421.5,257.5C 418.833,257.5 416.167,257.5 413.5,257.5C 413.218,260.347 413.218,263.013 413.5,265.5C 412.833,266.5 412.167,267.5 411.5,268.5C 412.853,269.524 413.52,270.857 413.5,272.5C 408.264,272.919 402.931,272.919 397.5,272.5C 398.013,275.449 398.013,278.282 397.5,281C 392.56,280.674 387.56,280.508 382.5,280.5C 382.5,283.167 382.5,285.833 382.5,288.5C 379.833,288.5 377.167,288.5 374.5,288.5C 374.5,291.167 374.5,293.833 374.5,296.5C 371.833,296.5 369.167,296.5 366.5,296.5C 366.5,299.167 366.5,301.833 366.5,304.5C 364.167,304.5 361.833,304.5 359.5,304.5C 361.167,311.5 358.5,314.167 351.5,312.5C 353.167,319.5 350.5,322.167 343.5,320.5C 343.5,322.833 343.5,325.167 343.5,327.5C 340.833,327.5 338.167,327.5 335.5,327.5C 330.5,327.5 325.5,327.5 320.5,327.5C 320.5,326.167 320.5,324.833 320.5,323.5C 321.5,323.5 322.5,323.5 323.5,323.5C 323.5,322.5 323.5,321.5 323.5,320.5C 324.833,320.5 326.167,320.5 327.5,320.5C 327.5,317.833 327.5,315.167 327.5,312.5C 330.167,312.167 332.833,311.833 335.5,311.5C 335.5,310.167 335.5,308.833 335.5,307.5C 336.833,307.5 338.167,307.5 339.5,307.5C 339.5,306.5 339.5,305.5 339.5,304.5C 340.833,304.5 342.167,304.5 343.5,304.5C 343.5,303.167 343.5,301.833 343.5,300.5C 348.225,298.314 353.225,296.981 358.5,296.5C 358.833,293.833 359.167,291.167 359.5,288.5C 361.833,288.5 364.167,288.5 366.5,288.5C 366.5,284.833 366.5,281.167 366.5,277.5C 369.167,277.5 371.833,277.5 374.5,277.5C 374.5,276.167 374.5,274.833 374.5,273.5C 375.833,273.5 377.167,273.5 378.5,273.5C 378.5,272.167 378.5,270.833 378.5,269.5C 379.833,269.5 381.167,269.5 382.5,269.5C 382.5,268.167 382.5,266.833 382.5,265.5C 383.833,265.5 385.167,265.5 386.5,265.5C 386.5,264.167 386.5,262.833 386.5,261.5C 387.833,261.5 389.167,261.5 390.5,261.5C 390.5,260.167 390.5,258.833 390.5,257.5C 394.182,257.665 397.848,257.499 401.5,257C 399.7,253.907 397.533,251.073 395,248.5C 393.274,249.576 391.441,249.743 389.5,249C 389.398,246.671 389.731,244.171 390.5,241.5C 391.833,241.5 393.167,241.5 394.5,241.5C 395.761,235.595 399.427,233.262 405.5,234.5C 405.336,231.813 405.503,229.146 406,226.5C 407.011,225.663 408.178,225.33 409.5,225.5C 409.5,224.5 409.5,223.5 409.5,222.5C 410.833,222.5 412.167,222.5 413.5,222.5C 413.5,221.167 413.5,219.833 413.5,218.5C 415.5,218.5 417.5,218.5 419.5,218.5 Z"/></g>
<g><path style="opacity:1" fill="#8dd7c2" d="M 187.5,273.5 C 187.326,275.861 186.993,278.194 186.5,280.5C 183.833,280.5 181.167,280.5 178.5,280.5C 178.5,283.167 178.5,285.833 178.5,288.5C 176.167,288.5 173.833,288.5 171.5,288.5C 171.5,289.833 171.5,291.167 171.5,292.5C 168.833,292.5 166.167,292.5 163.5,292.5C 163.5,293.833 163.5,295.167 163.5,296.5C 160.657,296.917 157.99,297.917 155.5,299.5C 154.691,301.071 154.357,302.738 154.5,304.5C 152.167,304.5 149.833,304.5 147.5,304.5C 147.5,305.833 147.5,307.167 147.5,308.5C 146.5,308.5 145.5,308.5 144.5,308.5C 144.5,309.833 144.5,311.167 144.5,312.5C 140.472,313.838 136.472,315.171 132.5,316.5C 132.5,317.833 132.5,319.167 132.5,320.5C 131.167,320.5 129.833,320.5 128.5,320.5C 127.799,322.908 126.799,325.242 125.5,327.5C 124.52,330.086 124.187,332.753 124.5,335.5C 121.833,335.5 119.167,335.5 116.5,335.5C 116.813,338.247 116.48,340.914 115.5,343.5C 111.015,343.359 106.348,343.359 101.5,343.5C 101.5,347.167 101.5,350.833 101.5,354.5C 96.7331,353.912 93.5664,351.245 92,346.5C 91.6667,348.5 91.3333,350.5 91,352.5C 90.3292,351.748 89.4959,351.414 88.5,351.5C 79.3925,337.616 72.7259,322.616 68.5,306.5C 68.7145,302.499 68.0479,298.665 66.5,295C 68.1971,291.737 69.1971,288.237 69.5,284.5C 70.4345,285.568 70.7678,286.901 70.5,288.5C 72.8333,288.5 75.1667,288.5 77.5,288.5C 77.5,286.167 77.5,283.833 77.5,281.5C 90.4989,281.133 103.499,280.8 116.5,280.5C 116.5,283.167 116.5,285.833 116.5,288.5C 121.833,288.5 127.167,288.5 132.5,288.5C 132.5,286.167 132.5,283.833 132.5,281.5C 134.806,281.007 137.139,280.674 139.5,280.5C 139.5,283.167 139.5,285.833 139.5,288.5C 142.5,288.5 145.5,288.5 148.5,288.5C 148.5,286.167 148.5,283.833 148.5,281.5C 152.198,281.448 155.865,281.114 159.5,280.5C 159.5,279.5 159.5,278.5 159.5,277.5C 164.24,276.145 168.907,274.478 173.5,272.5C 174.442,272.608 175.275,272.941 176,273.5C 177.161,270.733 178.327,268.067 179.5,265.5C 181.833,265.5 184.167,265.5 186.5,265.5C 187.092,268.127 187.425,270.794 187.5,273.5 Z"/></g>
<g><path style="opacity:1" fill="#8899a7" d="M 425.5,305.5 C 421.261,321.639 414.594,336.639 405.5,350.5C 405.338,348.473 405.505,346.473 406,344.5C 406.333,344.833 406.667,345.167 407,345.5C 407.703,343.22 408.869,341.22 410.5,339.5C 409.833,339.167 409.167,338.833 408.5,338.5C 409.426,334.906 409.759,331.24 409.5,327.5C 408.167,327.5 406.833,327.5 405.5,327.5C 405.5,330.167 405.5,332.833 405.5,335.5C 403.167,335.5 400.833,335.5 398.5,335.5C 398.5,338.167 398.5,340.833 398.5,343.5C 395.833,343.5 393.167,343.5 390.5,343.5C 390.274,346.249 390.607,348.916 391.5,351.5C 388.681,351.742 385.681,351.742 382.5,351.5C 382.5,353.833 382.5,356.167 382.5,358.5C 383.675,358.281 384.675,358.614 385.5,359.5C 383.778,362.42 381.445,364.253 378.5,365C 379.167,364.333 379.833,363.667 380.5,363C 379.027,362.29 378.36,361.124 378.5,359.5C 377.167,359.5 375.833,359.5 374.5,359.5C 374.5,361.833 374.5,364.167 374.5,366.5C 369.5,366.5 364.5,366.5 359.5,366.5C 359.5,367.833 359.5,369.167 359.5,370.5C 358.167,370.5 356.833,370.5 355.5,370.5C 355.5,371.833 355.5,373.167 355.5,374.5C 354.167,374.5 352.833,374.5 351.5,374.5C 351.521,377.535 352.854,379.868 355.5,381.5C 353.993,382.739 352.826,382.405 352,380.5C 349.519,382.314 346.685,382.98 343.5,382.5C 343.5,383.833 343.5,385.167 343.5,386.5C 340.167,386.5 336.833,386.5 333.5,386.5C 333.5,387.833 333.5,389.167 333.5,390.5C 332.167,390.5 330.833,390.5 329.5,390.5C 328.833,393.167 328.167,395.833 327.5,398.5C 325.167,398.5 322.833,398.5 320.5,398.5C 320.116,400.929 319.449,403.263 318.5,405.5C 317.167,405.5 315.833,405.5 314.5,405.5C 314.5,406.833 314.5,408.167 314.5,409.5C 312.5,409.5 310.5,409.5 308.5,409.5C 308.421,411.666 307.754,413.666 306.5,415.5C 307.167,416.833 307.833,418.167 308.5,419.5C 307.647,421.403 307.647,423.403 308.5,425.5C 312.323,423.929 316.323,422.929 320.5,422.5C 302.567,431.066 283.567,435.733 263.5,436.5C 258.786,436.827 254.12,436.493 249.5,435.5C 246.84,432.506 244.173,429.506 241.5,426.5C 241.5,424.833 241.5,423.167 241.5,421.5C 244.167,421.5 246.833,421.5 249.5,421.5C 249.5,418.833 249.5,416.167 249.5,413.5C 252.167,413.5 254.833,413.5 257.5,413.5C 257.5,411.167 257.5,408.833 257.5,406.5C 260.167,406.167 262.833,405.833 265.5,405.5C 265.5,403.167 265.5,400.833 265.5,398.5C 267.857,398.663 270.19,398.497 272.5,398C 273.346,395.218 273.513,392.384 273,389.5C 276.073,390.617 279.24,390.784 282.5,390C 284.982,388.539 284.982,387.039 282.5,385.5C 286.473,383.897 288.139,380.897 287.5,376.5C 287.611,375.883 287.944,375.383 288.5,375C 293.823,374.501 299.156,374.334 304.5,374.5C 304.5,371.833 304.5,369.167 304.5,366.5C 306.833,366.5 309.167,366.5 311.5,366.5C 311.318,364.409 311.652,362.409 312.5,360.5C 315.114,359.215 317.614,358.549 320,358.5C 320.497,356.19 320.663,353.857 320.5,351.5C 322.833,351.5 325.167,351.5 327.5,351.5C 327.5,348.833 327.5,346.167 327.5,343.5C 330.167,343.5 332.833,343.5 335.5,343.5C 335.5,342.167 335.5,340.833 335.5,339.5C 336.833,339.5 338.167,339.5 339.5,339.5C 339.5,338.167 339.5,336.833 339.5,335.5C 343.167,335.5 346.833,335.5 350.5,335.5C 350.5,332.833 350.5,330.167 350.5,327.5C 355.833,327.5 361.167,327.5 366.5,327.5C 366.5,324.833 366.5,322.167 366.5,319.5C 369.167,319.5 371.833,319.5 374.5,319.5C 374.5,317.167 374.5,314.833 374.5,312.5C 377.167,312.167 379.833,311.833 382.5,311.5C 383.524,304.977 387.357,301.311 394,300.5C 396.509,301.093 399.009,301.259 401.5,301C 400.552,300.517 399.552,300.351 398.5,300.5C 398.5,299.167 398.5,297.833 398.5,296.5C 399.833,296.5 401.167,296.5 402.5,296.5C 402.5,295.167 402.5,293.833 402.5,292.5C 403.5,292.5 404.5,292.5 405.5,292.5C 405.5,291.167 405.5,289.833 405.5,288.5C 407.666,288.421 409.666,287.754 411.5,286.5C 415.655,288.225 419.989,288.891 424.5,288.5C 424.907,294.161 425.24,299.828 425.5,305.5 Z"/></g>
<g><path style="opacity:1" fill="#8ac4b9" d="M 238.5,294.5 C 238.667,305.505 238.5,316.505 238,327.5C 237.781,326.062 237.281,324.729 236.5,323.5C 234.757,326.262 234.423,329.095 235.5,332C 232.871,334.79 230.871,337.957 229.5,341.5C 223.019,346.268 217.019,351.601 211.5,357.5C 210.516,360.428 210.183,363.428 210.5,366.5C 213.187,366.336 215.854,366.503 218.5,367C 210.951,367.221 203.617,368.554 196.5,371C 193.045,376.789 188.545,381.622 183,385.5C 182.316,386.784 182.483,387.951 183.5,389C 181.833,389.333 180.167,389.667 178.5,390C 176.578,392.43 174.245,394.263 171.5,395.5C 169.052,394.527 166.385,394.194 163.5,394.5C 163.5,392.833 163.5,391.167 163.5,389.5C 170.443,392.228 173.109,389.895 171.5,382.5C 174.167,382.5 176.833,382.5 179.5,382.5C 178.725,377.203 178.392,371.87 178.5,366.5C 180.924,366.192 183.257,366.526 185.5,367.5C 184.272,369.321 182.606,370.321 180.5,370.5C 180.5,371.833 180.5,373.167 180.5,374.5C 183.244,374.248 185.744,374.915 188,376.5C 188.5,376.167 189,375.833 189.5,375.5C 187.995,374.158 187.328,372.492 187.5,370.5C 188.552,370.649 189.552,370.483 190.5,370C 185.372,368.438 185.372,367.105 190.5,366C 189.207,365.51 187.873,365.343 186.5,365.5C 186.437,360.797 186.771,356.13 187.5,351.5C 191.135,350.886 194.802,350.552 198.5,350.5C 198.679,352.954 198.013,355.121 196.5,357C 197.078,358.811 197.578,360.645 198,362.5C 198.483,361.552 198.649,360.552 198.5,359.5C 199.833,359.5 201.167,359.5 202.5,359.5C 202.5,356.5 202.5,353.5 202.5,350.5C 209.443,353.228 212.109,350.895 210.5,343.5C 212.833,343.5 215.167,343.5 217.5,343.5C 217.5,342.167 217.5,340.833 217.5,339.5C 216.5,339.5 215.5,339.5 214.5,339.5C 214.5,340.5 214.5,341.5 214.5,342.5C 213.167,342.5 211.833,342.5 210.5,342.5C 210.5,340.167 210.5,337.833 210.5,335.5C 215.5,335.5 220.5,335.5 225.5,335.5C 225.885,327.93 224.885,327.596 222.5,334.5C 220.284,334.725 218.617,333.892 217.5,332C 218.291,329.25 218.291,326.417 217.5,323.5C 218.404,322.791 218.737,321.791 218.5,320.5C 221.167,320.167 223.833,319.833 226.5,319.5C 225.894,316.084 226.894,313.418 229.5,311.5C 230.652,308.894 230.818,306.227 230,303.5C 229.086,304.654 228.253,304.487 227.5,303C 229.158,301.337 231.158,300.504 233.5,300.5C 233.343,301.873 233.51,303.207 234,304.5C 235.043,301.243 235.543,297.91 235.5,294.5C 236.5,294.5 237.5,294.5 238.5,294.5 Z"/></g>
<g><path style="opacity:1" fill="#889fa9" d="M 323.5,320.5 C 323.5,321.5 323.5,322.5 323.5,323.5C 322.5,323.5 321.5,323.5 320.5,323.5C 320.5,324.833 320.5,326.167 320.5,327.5C 325.5,327.5 330.5,327.5 335.5,327.5C 335.5,330.167 335.5,332.833 335.5,335.5C 332.833,335.5 330.167,335.5 327.5,335.5C 327.5,338.167 327.5,340.833 327.5,343.5C 327.5,346.167 327.5,348.833 327.5,351.5C 325.167,351.5 322.833,351.5 320.5,351.5C 320.663,353.857 320.497,356.19 320,358.5C 317.614,358.549 315.114,359.215 312.5,360.5C 311.652,362.409 311.318,364.409 311.5,366.5C 309.167,366.5 306.833,366.5 304.5,366.5C 304.5,369.167 304.5,371.833 304.5,374.5C 299.156,374.334 293.823,374.501 288.5,375C 287.944,375.383 287.611,375.883 287.5,376.5C 285.986,373.905 283.652,372.571 280.5,372.5C 280.611,371.883 280.944,371.383 281.5,371C 278.529,370.206 275.529,369.539 272.5,369C 274.101,368.727 275.601,368.227 277,367.5C 279.68,367.985 282.347,368.318 285,368.5C 285.167,368.167 285.333,367.833 285.5,367.5C 279.822,367.822 277.155,365.155 277.5,359.5C 278.5,359.5 279.5,359.5 280.5,359.5C 281.027,356.769 281.86,354.102 283,351.5C 283.333,352.5 283.667,353.5 284,354.5C 285.961,350.953 287.461,347.286 288.5,343.5C 291.167,343.167 293.833,342.833 296.5,342.5C 296.5,341.5 296.5,340.5 296.5,339.5C 297.833,339.5 299.167,339.5 300.5,339.5C 300.5,338.167 300.5,336.833 300.5,335.5C 306.687,334.989 313.021,334.989 319.5,335.5C 319.5,332.833 319.5,330.167 319.5,327.5C 318.5,327.5 317.5,327.5 316.5,327.5C 316.5,328.833 316.5,330.167 316.5,331.5C 315.167,331.5 313.833,331.5 312.5,331.5C 312.5,328.833 312.5,326.167 312.5,323.5C 313.833,323.5 315.167,323.5 316.5,323.5C 316.5,322.5 316.5,321.5 316.5,320.5C 318.833,320.5 321.167,320.5 323.5,320.5 Z"/></g>
<g><path style="opacity:1" fill="#8895a5" d="M 405.5,350.5 C 385.151,383.843 356.817,407.843 320.5,422.5C 316.323,422.929 312.323,423.929 308.5,425.5C 307.647,423.403 307.647,421.403 308.5,419.5C 307.833,418.167 307.167,416.833 306.5,415.5C 307.754,413.666 308.421,411.666 308.5,409.5C 310.5,409.5 312.5,409.5 314.5,409.5C 314.5,408.167 314.5,406.833 314.5,405.5C 315.833,405.5 317.167,405.5 318.5,405.5C 319.449,403.263 320.116,400.929 320.5,398.5C 322.833,398.5 325.167,398.5 327.5,398.5C 328.167,395.833 328.833,393.167 329.5,390.5C 330.833,390.5 332.167,390.5 333.5,390.5C 333.5,389.167 333.5,387.833 333.5,386.5C 336.833,386.5 340.167,386.5 343.5,386.5C 343.5,385.167 343.5,383.833 343.5,382.5C 346.685,382.98 349.519,382.314 352,380.5C 352.826,382.405 353.993,382.739 355.5,381.5C 352.854,379.868 351.521,377.535 351.5,374.5C 352.833,374.5 354.167,374.5 355.5,374.5C 355.5,373.167 355.5,371.833 355.5,370.5C 356.833,370.5 358.167,370.5 359.5,370.5C 359.5,369.167 359.5,367.833 359.5,366.5C 364.5,366.5 369.5,366.5 374.5,366.5C 374.5,364.167 374.5,361.833 374.5,359.5C 375.833,359.5 377.167,359.5 378.5,359.5C 378.36,361.124 379.027,362.29 380.5,363C 379.833,363.667 379.167,364.333 378.5,365C 381.445,364.253 383.778,362.42 385.5,359.5C 384.675,358.614 383.675,358.281 382.5,358.5C 382.5,356.167 382.5,353.833 382.5,351.5C 385.681,351.742 388.681,351.742 391.5,351.5C 390.607,348.916 390.274,346.249 390.5,343.5C 393.167,343.5 395.833,343.5 398.5,343.5C 398.5,340.833 398.5,338.167 398.5,335.5C 400.833,335.5 403.167,335.5 405.5,335.5C 405.5,332.833 405.5,330.167 405.5,327.5C 406.833,327.5 408.167,327.5 409.5,327.5C 409.759,331.24 409.426,334.906 408.5,338.5C 409.167,338.833 409.833,339.167 410.5,339.5C 408.869,341.22 407.703,343.22 407,345.5C 406.667,345.167 406.333,344.833 406,344.5C 405.505,346.473 405.338,348.473 405.5,350.5 Z"/></g>
<g><path style="opacity:1" fill="#89c6ba" d="M 217.5,323.5 C 218.291,326.417 218.291,329.25 217.5,332C 218.617,333.892 220.284,334.725 222.5,334.5C 224.885,327.596 225.885,327.93 225.5,335.5C 220.5,335.5 215.5,335.5 210.5,335.5C 210.5,337.833 210.5,340.167 210.5,342.5C 211.833,342.5 213.167,342.5 214.5,342.5C 214.5,341.5 214.5,340.5 214.5,339.5C 215.5,339.5 216.5,339.5 217.5,339.5C 217.5,340.833 217.5,342.167 217.5,343.5C 215.167,343.5 212.833,343.5 210.5,343.5C 212.109,350.895 209.443,353.228 202.5,350.5C 202.5,353.5 202.5,356.5 202.5,359.5C 201.167,359.5 199.833,359.5 198.5,359.5C 198.649,360.552 198.483,361.552 198,362.5C 197.578,360.645 197.078,358.811 196.5,357C 198.013,355.121 198.679,352.954 198.5,350.5C 194.802,350.552 191.135,350.886 187.5,351.5C 186.771,356.13 186.437,360.797 186.5,365.5C 187.873,365.343 189.207,365.51 190.5,366C 185.372,367.105 185.372,368.438 190.5,370C 189.552,370.483 188.552,370.649 187.5,370.5C 187.328,372.492 187.995,374.158 189.5,375.5C 189,375.833 188.5,376.167 188,376.5C 185.744,374.915 183.244,374.248 180.5,374.5C 180.5,373.167 180.5,371.833 180.5,370.5C 182.606,370.321 184.272,369.321 185.5,367.5C 183.257,366.526 180.924,366.192 178.5,366.5C 178.392,371.87 178.725,377.203 179.5,382.5C 176.833,382.5 174.167,382.5 171.5,382.5C 173.109,389.895 170.443,392.228 163.5,389.5C 163.5,391.167 163.5,392.833 163.5,394.5C 166.385,394.194 169.052,394.527 171.5,395.5C 171.238,397.564 170.071,398.897 168,399.5C 166.644,398.62 165.144,398.286 163.5,398.5C 163.36,400.124 164.027,401.29 165.5,402C 165,402.5 164.5,403 164,403.5C 163.667,406.5 163.333,409.5 163,412.5C 161.378,413.099 159.878,413.766 158.5,414.5C 157.833,414.5 157.167,414.5 156.5,414.5C 147.804,410.156 139.804,404.823 132.5,398.5C 135.025,399.892 137.192,399.558 139,397.5C 140.651,399.402 140.984,401.402 140,403.5C 140.75,402.874 141.584,402.374 142.5,402C 142.167,401.667 141.833,401.333 141.5,401C 142.5,400.667 143.5,400.333 144.5,400C 143.692,398.294 142.359,397.461 140.5,397.5C 140.5,393.833 140.5,390.167 140.5,386.5C 141.833,386.5 143.167,386.5 144.5,386.5C 144.5,384.5 144.5,382.5 144.5,380.5C 147.167,379.833 149.833,379.167 152.5,378.5C 152.5,377.167 152.5,375.833 152.5,374.5C 154.833,374.5 157.167,374.5 159.5,374.5C 159.5,373.167 159.5,371.833 159.5,370.5C 160.833,370.5 162.167,370.5 163.5,370.5C 163.5,368.167 163.5,365.833 163.5,363.5C 166.167,363.5 168.833,363.5 171.5,363.5C 171.5,362.167 171.5,360.833 171.5,359.5C 172.833,359.5 174.167,359.5 175.5,359.5C 175.5,358.167 175.5,356.833 175.5,355.5C 176.833,355.5 178.167,355.5 179.5,355.5C 179.5,354.167 179.5,352.833 179.5,351.5C 180.833,351.5 182.167,351.5 183.5,351.5C 183.5,350.167 183.5,348.833 183.5,347.5C 184.833,347.5 186.167,347.5 187.5,347.5C 187.5,346.167 187.5,344.833 187.5,343.5C 188.5,343.5 189.5,343.5 190.5,343.5C 190.5,344.833 190.5,346.167 190.5,347.5C 192.288,347.785 193.955,347.452 195.5,346.5C 197.126,343.872 199.126,341.539 201.5,339.5C 202.429,338.311 202.762,336.978 202.5,335.5C 203.833,335.5 205.167,335.5 206.5,335.5C 206.5,334.167 206.5,332.833 206.5,331.5C 207.833,331.5 209.167,331.5 210.5,331.5C 210.5,330.167 210.5,328.833 210.5,327.5C 211.833,327.5 213.167,327.5 214.5,327.5C 214.5,326.167 214.5,324.833 214.5,323.5C 215.5,323.5 216.5,323.5 217.5,323.5 Z"/></g>
<g><path style="opacity:1" fill="#8abdb6" d="M 235.5,290.5 C 236.833,290.5 238.167,290.5 239.5,290.5C 239.5,317.833 239.5,345.167 239.5,372.5C 228.828,372.333 218.161,372.5 207.5,373C 204.959,374.848 203.959,377.348 204.5,380.5C 203.566,379.432 203.232,378.099 203.5,376.5C 201.263,375.551 198.929,374.884 196.5,374.5C 196.543,377.91 196.043,381.243 195,384.5C 191.667,387.833 188.333,391.167 185,394.5C 184.846,397.525 183.346,399.191 180.5,399.5C 180.5,400.5 180.5,401.5 180.5,402.5C 179.5,402.5 178.5,402.5 177.5,402.5C 177.04,405.957 175.04,407.623 171.5,407.5C 171.5,411.167 171.5,414.833 171.5,418.5C 167.383,417 163.049,415.667 158.5,414.5C 159.878,413.766 161.378,413.099 163,412.5C 163.333,409.5 163.667,406.5 164,403.5C 164.5,403 165,402.5 165.5,402C 164.027,401.29 163.36,400.124 163.5,398.5C 165.144,398.286 166.644,398.62 168,399.5C 170.071,398.897 171.238,397.564 171.5,395.5C 174.245,394.263 176.578,392.43 178.5,390C 180.167,389.667 181.833,389.333 183.5,389C 182.483,387.951 182.316,386.784 183,385.5C 188.545,381.622 193.045,376.789 196.5,371C 203.617,368.554 210.951,367.221 218.5,367C 215.854,366.503 213.187,366.336 210.5,366.5C 210.183,363.428 210.516,360.428 211.5,357.5C 217.019,351.601 223.019,346.268 229.5,341.5C 230.871,337.957 232.871,334.79 235.5,332C 234.423,329.095 234.757,326.262 236.5,323.5C 237.281,324.729 237.781,326.062 238,327.5C 238.5,316.505 238.667,305.505 238.5,294.5C 238.5,293.5 238.5,292.5 238.5,291.5C 237.209,291.737 236.209,291.404 235.5,290.5 Z"/></g>
<g><path style="opacity:1" fill="#89b8b4" d="M 204.5,380.5 C 204.5,381.167 204.5,381.833 204.5,382.5C 204.416,386.331 205.083,389.998 206.5,393.5C 203.234,393.433 201.734,395.099 202,398.5C 199.497,400.48 197.664,402.813 196.5,405.5C 195.5,405.5 194.5,405.5 193.5,405.5C 193.5,406.833 193.5,408.167 193.5,409.5C 191.5,409.5 189.5,409.5 187.5,409.5C 187.5,413.833 187.5,418.167 187.5,422.5C 185.046,422.321 182.879,422.987 181,424.5C 179.234,423.767 177.401,423.433 175.5,423.5C 168.734,421.282 162.401,418.282 156.5,414.5C 157.167,414.5 157.833,414.5 158.5,414.5C 163.049,415.667 167.383,417 171.5,418.5C 171.5,414.833 171.5,411.167 171.5,407.5C 175.04,407.623 177.04,405.957 177.5,402.5C 178.5,402.5 179.5,402.5 180.5,402.5C 180.5,401.5 180.5,400.5 180.5,399.5C 183.346,399.191 184.846,397.525 185,394.5C 188.333,391.167 191.667,387.833 195,384.5C 196.043,381.243 196.543,377.91 196.5,374.5C 198.929,374.884 201.263,375.551 203.5,376.5C 203.232,378.099 203.566,379.432 204.5,380.5 Z"/></g>
<g><path style="opacity:1" fill="#889faa" d="M 233.5,385.5 C 249.833,385.5 266.167,385.5 282.5,385.5C 284.982,387.039 284.982,388.539 282.5,390C 279.24,390.784 276.073,390.617 273,389.5C 273.513,392.384 273.346,395.218 272.5,398C 270.19,398.497 267.857,398.663 265.5,398.5C 265.5,400.833 265.5,403.167 265.5,405.5C 262.833,405.833 260.167,406.167 257.5,406.5C 257.5,408.833 257.5,411.167 257.5,413.5C 254.833,413.5 252.167,413.5 249.5,413.5C 249.5,416.167 249.5,418.833 249.5,421.5C 246.833,421.5 244.167,421.5 241.5,421.5C 241.5,423.167 241.5,424.833 241.5,426.5C 239.171,424.187 236.504,422.187 233.5,420.5C 232.82,419.14 232.153,417.807 231.5,416.5C 231.414,415.504 231.748,414.671 232.5,414C 230.586,409.142 229.919,403.975 230.5,398.5C 235.719,398.271 240.719,397.104 245.5,395C 247.176,393.823 248.509,392.323 249.5,390.5C 253.5,389.833 257.5,389.167 261.5,388.5C 252.513,387.791 243.513,387.624 234.5,388C 233.748,387.329 233.414,386.496 233.5,385.5 Z"/></g>
<g><path style="opacity:1" fill="#88a4ab" d="M 210.5,385.5 C 218.167,385.5 225.833,385.5 233.5,385.5C 233.414,386.496 233.748,387.329 234.5,388C 243.513,387.624 252.513,387.791 261.5,388.5C 257.5,389.167 253.5,389.833 249.5,390.5C 248.509,392.323 247.176,393.823 245.5,395C 240.719,397.104 235.719,398.271 230.5,398.5C 229.919,403.975 230.586,409.142 232.5,414C 231.748,414.671 231.414,415.504 231.5,416.5C 225.803,411.001 220.136,405.668 214.5,400.5C 214.297,398.956 213.63,397.622 212.5,396.5C 213.167,395.833 213.833,395.167 214.5,394.5C 213.147,393.476 212.48,392.143 212.5,390.5C 214.5,390.5 216.5,390.5 218.5,390.5C 218.5,389.167 218.5,387.833 218.5,386.5C 215.615,386.806 212.948,386.473 210.5,385.5 Z"/></g>
<g><path style="opacity:1" fill="#8baaaf" d="M 214.5,400.5 C 220.136,405.668 225.803,411.001 231.5,416.5C 232.153,417.807 232.82,419.14 233.5,420.5C 236.504,422.187 239.171,424.187 241.5,426.5C 244.173,429.506 246.84,432.506 249.5,435.5C 254.12,436.493 258.786,436.827 263.5,436.5C 245.213,438.187 226.879,437.353 208.5,434C 204.25,433.261 200.25,432.094 196.5,430.5C 198.5,430.5 200.5,430.5 202.5,430.5C 202.76,424.828 203.093,419.161 203.5,413.5C 204.5,413.5 205.5,413.5 206.5,413.5C 206.5,412.167 206.5,410.833 206.5,409.5C 205.167,409.5 203.833,409.5 202.5,409.5C 202.5,408.167 202.5,406.833 202.5,405.5C 205.841,404.843 207.841,406.176 208.5,409.5C 209.316,406.453 211.316,404.787 214.5,404.5C 214.023,403.522 213.357,402.689 212.5,402C 213.416,401.722 214.082,401.222 214.5,400.5 Z"/></g>
<g><path style="opacity:0.999" fill="#8bb2b2" d="M 204.5,382.5 C 206.053,384.385 208.053,385.385 210.5,385.5C 212.948,386.473 215.615,386.806 218.5,386.5C 218.5,387.833 218.5,389.167 218.5,390.5C 216.5,390.5 214.5,390.5 212.5,390.5C 212.48,392.143 213.147,393.476 214.5,394.5C 213.833,395.167 213.167,395.833 212.5,396.5C 213.63,397.622 214.297,398.956 214.5,400.5C 214.082,401.222 213.416,401.722 212.5,402C 213.357,402.689 214.023,403.522 214.5,404.5C 211.316,404.787 209.316,406.453 208.5,409.5C 207.841,406.176 205.841,404.843 202.5,405.5C 202.5,406.833 202.5,408.167 202.5,409.5C 203.833,409.5 205.167,409.5 206.5,409.5C 206.5,410.833 206.5,412.167 206.5,413.5C 205.5,413.5 204.5,413.5 203.5,413.5C 203.093,419.161 202.76,424.828 202.5,430.5C 200.5,430.5 198.5,430.5 196.5,430.5C 189.085,429.14 182.085,426.806 175.5,423.5C 177.401,423.433 179.234,423.767 181,424.5C 182.879,422.987 185.046,422.321 187.5,422.5C 187.5,418.167 187.5,413.833 187.5,409.5C 189.5,409.5 191.5,409.5 193.5,409.5C 193.5,408.167 193.5,406.833 193.5,405.5C 194.5,405.5 195.5,405.5 196.5,405.5C 197.664,402.813 199.497,400.48 202,398.5C 201.734,395.099 203.234,393.433 206.5,393.5C 205.083,389.998 204.416,386.331 204.5,382.5 Z"/></g>
</svg>
