<svg xmlns="http://www.w3.org/2000/svg" width="48" height="48" viewBox="0 0 512 512" version="1.1"><path d="" stroke="none" fill="#080404" fill-rule="evenodd"/><path d="M 223.564 1.625 C 197.378 4.978, 167.983 13.820, 144.046 25.542 C 116.859 38.856, 96.642 53.331, 74.986 74.986 C 39.338 110.634, 16.586 152.035, 5.578 201.284 C -1.981 235.104, -1.970 276.638, 5.607 311 C 11.372 337.142, 24.679 369.970, 38.112 391.189 C 58.791 423.854, 88.146 453.209, 120.811 473.888 C 142.037 487.325, 174.797 500.603, 201.066 506.416 C 234.904 513.904, 277.096 513.904, 310.934 506.416 C 337.337 500.574, 370.465 487.080, 392 473.397 C 423.602 453.317, 453.317 423.602, 473.397 392 C 491.745 363.123, 506.800 320.610, 510.283 287.838 C 510.916 281.877, 511.787 277, 512.217 277 C 512.648 277, 512.964 266.988, 512.921 254.750 C 512.878 242.512, 512.566 233.175, 512.229 234 C 511.891 234.825, 511.041 230.441, 510.338 224.258 C 506.532 190.744, 491.938 149.325, 473.888 120.811 C 453.224 88.166, 423.890 58.793, 391.500 38.316 C 361.628 19.430, 323.589 6.037, 287.030 1.536 C 271.561 -0.369, 238.774 -0.323, 223.564 1.625 M 241.420 202.923 C 173.177 229.247, 115.577 251.694, 113.420 252.806 C 111.264 253.917, 108.462 255.806, 107.193 257.005 C 104.122 259.906, 104.547 264.594, 108.124 267.252 C 111.425 269.706, 176.758 290.253, 178.336 289.334 C 178.976 288.961, 212.575 267.853, 253 242.427 C 293.425 217, 327.400 196.101, 328.500 195.983 C 332.513 195.555, 334 196.037, 334 197.767 C 334 198.833, 310.976 220.352, 275.958 252.017 C 244.035 280.883, 216.988 305.285, 215.854 306.245 C 213.947 307.857, 213.618 310.428, 211.502 340.245 C 210.243 357.985, 209.302 372.600, 209.412 372.723 C 209.522 372.845, 211.267 372.489, 213.289 371.931 C 216.038 371.171, 221.371 366.643, 234.456 353.958 C 244.077 344.631, 252.239 337, 252.595 337 C 252.950 337, 267.621 347.612, 285.196 360.582 C 302.770 373.553, 318.677 384.803, 320.543 385.582 C 327.765 388.600, 334.081 386.337, 337.019 379.679 C 339.202 374.732, 382 173.868, 382 168.572 C 382 163.816, 379.795 158.670, 376.883 156.631 C 371.374 152.772, 371.905 152.590, 241.420 202.923 M 0.428 256 C 0.428 268.375, 0.571 273.438, 0.747 267.250 C 0.922 261.063, 0.922 250.938, 0.747 244.750 C 0.571 238.563, 0.428 243.625, 0.428 256" stroke="none" fill="#040404" fill-rule="evenodd"/></svg>